<svg xmlns="http://www.w3.org/2000/svg" version="1.1" xmlns:xlink="http://www.w3.org/1999/xlink" xmlns:svgjs="http://svgjs.dev/svgjs" width="1440" height="560" preserveAspectRatio="none" viewBox="0 0 1440 560">
    <g mask="url(&quot;#SvgjsMask1008&quot;)" fill="none">
        <rect width="1440" height="560" x="0" y="0" ></rect>
        <path d="M0 0L65.78 0L0 198.13z" fill="rgba(255, 255, 255, .125)"></path>
        <path d="M0 198.13L65.78 0L354.54999999999995 0L0 320.64z" fill="rgba(255, 255, 255, .1)"></path>
        <path d="M0 320.64L354.54999999999995 0L840.48 0L0 416.36z" fill="rgba(255, 255, 255, .075)"></path>
        <path d="M0 416.36L840.48 0L1129.56 0L0 473.83000000000004z" fill="rgba(255, 255, 255, .05)"></path>
        <path d="M1440 560L907.69 560L1440 341.03z" fill="rgba(0, 0, 0, .1)"></path>
        <path d="M1440 341.03L907.69 560L792.3100000000001 560L1440 216.84999999999997z" fill="rgba(0, 0, 0, .1)"></path>
        <path d="M1440 216.85000000000002L792.3100000000001 560L376.9700000000001 560L1440 211.38000000000002z" fill="rgba(0, 0, 0, .075)"></path>
        <path d="M1440 211.38L376.97 560L135.62000000000003 560L1440 186.10999999999999z" fill="rgba(0, 0, 0, .05)"></path>
    </g>
    <defs>
        <mask id="SvgjsMask1008">
            <rect width="1440" height="560" fill="#ffffff"></rect>
        </mask>
    </defs>
</svg>