<svg xmlns="http://www.w3.org/2000/svg" width="64" height="64" viewBox="0 0 511.999 511.999"><path d="M504.394 69.846c-162.242-47.136-334.546-47.136-496.788 0 15.964 54.947 31.927 109.896 47.891 164.842 130.96-38.048 270.045-38.048 401.005 0 15.963-54.947 31.927-109.895 47.892-164.842z" fill="#ff8522"/><g fill="#666"><path d="M123.813 477.506c-3.296 0-6.333-2.16-7.298-5.485L.304 71.968c-1.171-4.033 1.148-8.252 5.181-9.423 4.028-1.173 8.252 1.147 9.423 5.181L131.119 467.78c1.171 4.033-1.148 8.252-5.181 9.423-.708.205-1.422.303-2.125.303zM388.156 477.506c-.703 0-1.416-.098-2.126-.304-4.033-1.172-6.352-5.391-5.18-9.424L497.092 67.725c1.171-4.033 5.394-6.351 9.424-5.18 4.033 1.172 6.352 5.391 5.18 9.424l-116.24 400.053c-.968 3.324-4.005 5.484-7.3 5.484z"/></g><g fill="#fd0"><path d="M215.428 163.518c-13.182 0-24.24-9.575-25.556-22.475-1.042-10.864-2.074-21.693-3.095-32.523-.618-6.158 1.357-12.306 5.566-17.274 4.76-5.619 11.937-9.129 19.691-9.632 7.865-.517 15.531 2.074 21.025 7.103 4.869 4.457 7.63 10.4 7.776 16.737.31 10.583.629 21.204.956 31.823.343 13.767-10.456 25.252-24.583 26.184h-.006c-.594.037-1.187.057-1.774.057zm1.381-6.129h.01-.01zm-2.792-63.675c-.395 0-.792.013-1.191.04-4.481.291-8.562 2.243-11.2 5.356-2.056 2.427-3.028 5.349-2.739 8.23 1.025 10.859 2.054 21.682 3.093 32.504.691 6.781 7.142 11.939 14.43 11.476 7.592-.501 13.4-6.521 13.222-13.705-.326-10.59-.646-21.216-.956-31.844-.07-3.027-1.43-5.884-3.829-8.08-2.796-2.558-6.69-3.977-10.83-3.977zM105.065 181.551c-1.074 0-2.136-.284-3.078-.836a6.0766 6.0766 0 01-2.809-3.717c-5.815-22.389-11.686-45.151-17.446-67.652-.833-3.254 1.129-6.569 4.384-7.402 3.254-.836 6.569 1.129 7.402 4.384 5.255 20.525 10.601 41.268 15.913 61.746a607.3772 607.3772 0 0126.568-6.016c-.845-4.422-1.688-8.845-2.53-13.267-.628-3.3 1.539-6.485 4.839-7.113 3.295-.629 6.485 1.538 7.113 4.838 1.217 6.398 2.437 12.797 3.661 19.193.632 3.297-1.529 6.484-4.826 7.117-12.586 2.421-25.255 5.289-37.656 8.527-.505.133-1.021.198-1.535.198zM421.276 185.682c-.561 0-1.13-.078-1.696-.241-12.23-3.543-24.731-6.727-37.155-9.463a6.0859 6.0859 0 01-3.82-2.667 6.0838 6.0838 0 01-.812-4.587c5.006-22.642 10.122-45.586 15.207-68.192.735-3.269 3.977-5.325 7.245-4.606 14.171 3.126 28.416 6.758 42.343 10.797 3.227.936 5.083 4.31 4.148 7.537-.937 3.227-4.312 5.082-7.538 4.148-11.737-3.405-23.707-6.515-35.661-9.269-4.198 18.693-8.409 37.579-12.555 56.297 10.716 2.475 21.449 5.266 31.985 8.319 3.227.935 5.085 4.309 4.15 7.536-.772 2.661-3.202 4.391-5.841 4.391z"/><path d="M411.352 146.367c-.497 0-1.002-.062-1.506-.19-6.527-1.664-13.176-3.242-19.762-4.694-3.281-.723-5.354-3.969-4.631-7.249.723-3.281 3.969-5.355 7.249-4.631a634.73 634.73 0 0120.148 4.785c3.255.829 5.222 4.141 4.393 7.396-.701 2.752-3.176 4.583-5.891 4.583zM310.425 164.714c-.188 0-.375-.008-.565-.026-2.561-.237-4.697-2.061-5.333-4.554a978.4465 978.4465 0 00-6.564-24.424l-6.26-21.23a996.4233 996.4233 0 00-8.184-25.419c-1.073-3.185.64-6.635 3.823-7.707 3.178-1.073 6.633.638 7.707 3.823 2.866 8.509 5.659 17.189 8.302 25.798l6.298 21.362c.817 2.89 1.622 5.787 2.413 8.685 8.513-17.479 17.659-34.839 27.286-51.788 1.658-2.921 5.371-3.945 8.293-2.285 2.922 1.66 3.945 5.372 2.285 8.294-12.221 21.517-23.657 43.706-33.989 65.952-1 2.159-3.162 3.519-5.512 3.519z"/></g></svg>