<svg xmlns="http://www.w3.org/2000/svg" width="72.5289" height="61.1023" viewBox="0 0 19.1899 16.1666"><path d="M13.3092 6.6344H2.6998v7.7537h10.6094z" fill="#fff"/><path d="M18.0961 6.1024V9.702a.3248.3248 0 01-.3242.3246h-2.6793a.3248.3248 0 01-.3246-.3246V1.4178a.3243.3243 0 01.3246-.3242h2.6793c.1789 0 .3242.145.3242.3242v1.2968" fill="#f4c151"/><path d="M17.7719 10.12h-2.6793a.4187.4187 0 01-.418-.418V1.418c0-.2303.1876-.418.418-.418h2.6793c.2304 0 .418.1877.418.418v1.2965a.0936.0936 0 01-.1873 0V1.418a.2308.2308 0 00-.2307-.2307h-2.6793a.2308.2308 0 00-.2308.2307v8.284a.231.231 0 00.2308.2307h2.6793a.231.231 0 00.2307-.2307V6.1022a.0937.0937 0 01.1873 0V9.702a.4187.4187 0 01-.418.418" fill="#41404d"/><path d="M14.7683 2.793h-1.459a.0934.0934 0 110-.187h1.459a.0934.0934 0 110 .187M14.7683 8.514h-1.459a.0934.0934 0 110-.187h1.459a.0934.0934 0 110 .187" fill="#41404d"/><path d="M17.344 3.089c0 .5034-.4081.9115-.9119.9115a.9116.9116 0 01-.9116-.9116.9114.9114 0 01.9116-.9115c.5038 0 .912.4078.912.9115" fill="#fff"/><path d="M16.4321 2.2707c-.4512 0-.818.3669-.818.8181 0 .4512.3668.8184.818.8184.4512 0 .8181-.3672.8181-.8184s-.3669-.818-.818-.818m0 1.8234c-.5543 0-1.0055-.4508-1.0055-1.0054 0-.5542.4512-1.0054 1.0054-1.0054s1.0054.4512 1.0054 1.0054c0 .5546-.4512 1.0054-1.0054 1.0054M16.8996 8.878a.0936.0936 0 01-.0935-.0936V4.7783c0-.0515.042-.0935.0935-.0935s.0935.042.0935.0935v4.0061a.0936.0936 0 01-.0935.0935M15.9644 7.813a.0937.0937 0 01-.0934-.0938V4.7784a.0934.0934 0 11.187 0v2.9408a.0937.0937 0 01-.0936.0938" fill="#41404d"/><path d="M12.1476 7.5724zm-2.7622 0zm-2.7623 0zm-2.7672 0zM2.6657 6.249v2.8533l.0564-.0265c.514-.0836.93-.4155 1.1353-.8632.243.52.7722.8809 1.3846.8809.6114 0 1.1395-.362 1.3811-.883.2417.521.7701.883 1.3812.883.6113 0 1.1394-.362 1.381-.883.2417.521.7702.883 1.3812.883.6103 0 1.138-.3613 1.38-.8813.2061.4477.6238.7797 1.1403.8636l.0225.0265V6.249z" fill="#dadada"/><path d="M2.7936 14.2942h10.4221V6.7278H2.7937zm10.5156.1873H2.6998a.0937.0937 0 01-.0935-.0938V6.6344c0-.0519.042-.0935.0935-.0935h10.6094a.0934.0934 0 01.0935.0935v7.7533a.0937.0937 0 01-.0935.0938" fill="#41404d"/><path d="M13.078 2.1772H2.9314a.231.231 0 00-.2314.231v.9448h10.6094v-.9447a.2313.2313 0 00-.2314-.2311" fill="#fff"/><path d="M2.7935 3.2593h10.4221v-.6064a.3826.3826 0 00-.382-.382H3.1758a.3826.3826 0 00-.3824.382zm10.5156.1873H2.6996a.0936.0936 0 01-.0934-.0935V2.653a.57.57 0 01.5697-.5694h9.6576a.57.57 0 01.5694.5694v.7002a.0937.0937 0 01-.0938.0935" fill="#41404d"/><path d="M3.858 6.6343c0 .7634-.6187 1.3822-1.3822 1.3822-.7634 0-1.3821-.6188-1.3821-1.3822" fill="#f4c151"/><path d="M2.4757 8.11C1.6622 8.11 1 7.4478 1 6.6343a.0937.0937 0 01.1873 0c0 .7105.5779 1.2884 1.2884 1.2884.7108 0 1.2887-.5779 1.2887-1.2884a.0937.0937 0 01.1873 0c0 .8135-.6622 1.4757-1.476 1.4757" fill="#41404d"/><path d="M6.6224 6.6343c0 .7634-.6188 1.3822-1.3822 1.3822-.7634 0-1.3822-.6188-1.3822-1.3822" fill="#f4c151"/><path d="M5.2404 8.11c-.8139 0-1.476-.6622-1.476-1.4757a.0937.0937 0 01.1873 0c0 .7105.5778 1.2884 1.2887 1.2884.7105 0 1.2887-.5779 1.2887-1.2884a.0937.0937 0 01.1873 0c0 .8135-.6622 1.4757-1.476 1.4757" fill="#41404d"/><path d="M9.3867 6.6343c0 .7634-.6187 1.3822-1.3822 1.3822-.7634 0-1.3821-.6188-1.3821-1.3822" fill="#f4c151"/><path d="M8.0045 8.11c-.8135 0-1.4756-.6622-1.4756-1.4757a.0937.0937 0 01.1873 0c0 .7105.5778 1.2884 1.2883 1.2884.7109 0 1.2887-.5779 1.2887-1.2884a.0937.0937 0 01.1873 0c0 .8135-.6621 1.4757-1.476 1.4757" fill="#41404d"/><path d="M12.1512 6.6343c0 .7634-.6187 1.3822-1.3822 1.3822-.7634 0-1.3821-.6188-1.3821-1.3822" fill="#f4c151"/><path d="M10.769 8.11c-.8138 0-1.476-.6622-1.476-1.4757a.0937.0937 0 01.1874 0c0 .7105.5778 1.2884 1.2887 1.2884.7105 0 1.2883-.5779 1.2883-1.2884a.0937.0937 0 01.1873 0c0 .8135-.6621 1.4757-1.4756 1.4757" fill="#41404d"/><path d="M14.9156 6.6343c0 .7634-.6188 1.3822-1.3822 1.3822-.7634 0-1.3822-.6188-1.3822-1.3822" fill="#f4c151"/><path d="M13.5332 8.11c-.8138 0-1.476-.6622-1.476-1.4757a.0937.0937 0 01.1873 0c0 .7105.5779 1.2884 1.2887 1.2884.7109 0 1.2887-.5779 1.2887-1.2884a.0937.0937 0 01.1873 0c0 .8135-.6621 1.4757-1.476 1.4757" fill="#41404d"/><path d="M1.7777 5.241l-.684 1.3934h13.8218L13.3093 3.362H2.6999l-.224.4565" fill="#f4c151"/><path d="M14.9156 6.7278H1.0938a.0934.0934 0 01-.0794-.044.0923.0923 0 01-.0046-.0908l.6837-1.3934a.0948.0948 0 01.1256-.0427.094.094 0 01.043.1252l-.618 1.2587h13.5212l-1.5145-3.0854H2.7585l-.1986.4043a.094.094 0 01-.1256.043.0943.0943 0 01-.0427-.1255l.224-.4565A.094.094 0 012.7 3.268h10.609a.094.094 0 01.0844.0526l1.6062 3.2723a.0934.0934 0 01-.084.1348" fill="#41404d"/><path d="M3.858 6.7278a.0936.0936 0 01-.0889-.1228l1.071-3.2723a.0927.0927 0 01.1179-.0596.0931.0931 0 01.0596.1178L3.947 6.6632a.0936.0936 0 01-.0889.0646M6.6225 6.7278a.094.094 0 01-.0924-.1087l.5352-3.2811c.0084-.0508.055-.0872.1076-.0773a.0934.0934 0 01.0772.1072L6.715 6.6491a.0935.0935 0 01-.0925.0787M9.3867 6.7278a.0938.0938 0 01-.0924-.0783L8.7588 3.377a.0938.0938 0 01.0772-.1076c.0547-.0091.0992.0265.1076.0773l.5356 3.2723a.094.094 0 01-.0925.1087M12.151 6.7278a.0933.0933 0 01-.0888-.0646l-1.071-3.2723a.0937.0937 0 01.0595-.1178c.0515-.016.1027.0109.1182.0596l1.0707 3.2723a.0932.0932 0 01-.0885.1228M9.343 10.9327a.0936.0936 0 01-.0364-.1799l1.9513-.8145a.0931.0931 0 01.1224.05.0934.0934 0 01-.0501.1225l-1.9509.8145a.097.097 0 01-.0363.0074M8.7254 12.4744a.0936.0936 0 01-.0363-.1799l2.0708-.8647a.0935.0935 0 11.0723.1725l-2.0704.8647a.097.097 0 01-.0364.0074M11.4097 11.3534a.094.094 0 01-.0864-.0579.093.093 0 01.05-.122l.827-.3454a.0932.0932 0 01.1224.0504.0927.0927 0 01-.0501.122l-.8266.3454a.097.097 0 01-.0363.0075M3.3256 14.2942h3.8125V8.9207H3.3256zm3.906.1873H3.232a.0937.0937 0 01-.0935-.0938V8.8272c0-.0518.042-.0938.0935-.0938h3.9995c.0515 0 .0935.042.0935.0938v5.5605a.0937.0937 0 01-.0935.0938" fill="#41404d"/><path d="M6.4225 12.1675a.0936.0936 0 01-.0934-.0935v-.9349a.0937.0937 0 01.1873 0v.9349a.094.094 0 01-.0939.0935M3.4601 10.6127H3.268a.0353.0353 0 01-.0357-.0357v-.7814A.0353.0353 0 013.268 9.76H3.46a.0355.0355 0 01.0357.0356v.7814a.0355.0355 0 01-.0357.0357M3.4601 13.5002H3.268a.0353.0353 0 01-.0357-.0356v-.7814a.0353.0353 0 01.0357-.0357H3.46a.0355.0355 0 01.0357.0357v.7814a.0355.0355 0 01-.0357.0356" fill="#41404d"/><path d="M14.0388 15.0728H2.0542v-.6847h11.9846z" fill="#dadada"/><path d="M2.1473 14.9793H13.945v-.4978H2.1473zm11.8911.1873H2.0538a.0936.0936 0 01-.0934-.0934v-.6855c0-.0515.042-.0935.0934-.0935h11.9846c.0519 0 .0939.042.0939.0935v.6855a.0937.0937 0 01-.0939.0934" fill="#41404d"/></svg>