<svg xmlns="http://www.w3.org/2000/svg" width="64" height="64" viewBox="0 0 490.2 490.2"><path fill="#ff2424" d="M322.2 201.7v24.5c0 5.5 4.4 9.9 9.9 9.9s9.9-4.4 9.9-9.9v-24.5c0-8.2-3.6-15.9-9.9-21-18.8-15.4-38.8-26.6-48.2-31.5v-24.9c4.6-4.8 7.2-11.2 7.2-18V70.5c0-23.2-18.9-42.1-42.1-42.1h-7.7c-23.2 0-42.1 18.9-42.1 42.1v35.8c0 6.8 2.6 13.2 7.2 18v24.8c-9.4 4.9-29.4 16.1-48.2 31.5-6.3 5.2-9.9 12.8-9.9 21v24.5c0 5.5 4.4 9.9 9.9 9.9s9.9-4.4 9.9-9.9v-24.5c0-2.2 1-4.3 2.7-5.7 21.4-17.6 44.5-29.3 49-31.4 3.9-1.9 6.4-6 6.4-10.3v-34.5c0-3.3-1.7-6.4-4.4-8.2-1.7-1.2-2.8-3.1-2.8-5.2V70.5c0-12.3 10-22.3 22.3-22.3h7.7c12.3 0 22.3 10 22.3 22.3v35.8c0 2.1-1 4-2.8 5.2-2.8 1.8-4.4 4.9-4.4 8.2v34.5c0 4.4 2.5 8.4 6.4 10.3 4.4 2.2 27.6 13.8 49 31.4 1.7 1.4 2.7 3.5 2.7 5.8zM416.7 337.2c-2.8 1.8-4.4 4.9-4.4 8.2v34.5c0 4.4 2.5 8.4 6.4 10.3 4.4 2.2 27.6 13.9 49 31.4 1.7 1.4 2.7 3.5 2.7 5.7v24.5c0 5.5 4.4 9.9 9.9 9.9s9.9-4.4 9.9-9.9v-24.5c0-8.2-3.6-15.9-9.9-21-18.8-15.4-38.8-26.6-48.2-31.5v-24.9c4.6-4.8 7.2-11.2 7.2-18v-35.8c0-23.2-18.9-42.1-42.1-42.1h-7.7c-23.2 0-42.1 18.9-42.1 42.1v35.8c0 6.8 2.6 13.2 7.2 18v24.9c-9.4 4.9-29.4 16.1-48.2 31.5-6.3 5.2-9.9 12.9-9.9 21v24.5c0 5.5 4.4 9.9 9.9 9.9s9.9-4.4 9.9-9.9v-24.5c0-2.2 1-4.3 2.7-5.7 21.4-17.6 44.5-29.3 49-31.4 3.9-1.9 6.4-6 6.4-10.3v-34.5c0-3.3-1.7-6.4-4.4-8.2-1.7-1.2-2.8-3.1-2.8-5.2v-35.8c0-12.3 10-22.3 22.3-22.3h7.7c12.3 0 22.3 10 22.3 22.3V332c0 2.1-1 4-2.8 5.2zM173.9 427.4v24.5c0 5.5 4.4 9.9 9.9 9.9s9.9-4.4 9.9-9.9v-24.5c0-8.2-3.6-15.9-9.9-21-18.8-15.4-38.8-26.6-48.2-31.5V350c4.6-4.8 7.2-11.2 7.2-18v-35.8c0-23.2-18.9-42.1-42.1-42.1H93c-23.2 0-42.1 18.9-42.1 42.1V332c0 6.8 2.6 13.2 7.2 18v24.9c-9.4 4.9-29.4 16.1-48.2 31.5-6.3 5.2-9.9 12.8-9.9 21v24.5c0 5.5 4.4 9.9 9.9 9.9s9.9-4.4 9.9-9.9v-24.5c0-2.2 1-4.3 2.7-5.7 21.4-17.6 44.5-29.3 49-31.4 4-1.9 6.4-5.9 6.4-10.3v-34.5c0-3.3-1.7-6.4-4.4-8.2-1.7-1.2-2.8-3.1-2.8-5.2v-35.8c0-12.3 10-22.3 22.3-22.3h7.7c12.3 0 22.3 10 22.3 22.3v35.8c0 2.1-1 4-2.8 5.2-2.8 1.8-4.4 4.9-4.4 8.2V380c0 4.4 2.5 8.4 6.4 10.3 4.4 2.2 27.6 13.8 49 31.4 1.7 1.4 2.7 3.4 2.7 5.7z"/><path fill="#3c92ca" d="M245.1 378.6c5.5 0 9.9-4.4 9.9-9.9v-13.3h1.1c18.7 0 34-15.2 34-34s-15.2-34-34-34h-22c-7.8 0-14.2-6.4-14.2-14.2s6.4-14.1 14.2-14.1h38.7c5.5 0 9.9-4.4 9.9-9.9s-4.4-9.9-9.9-9.9h-17.9v-13.1c0-5.5-4.4-9.9-9.9-9.9s-9.9 4.4-9.9 9.9v13.1h-1c-18.7 0-34 15.2-34 34 0 18.7 15.2 34 34 34h22c7.8 0 14.2 6.4 14.2 14.2 0 7.8-6.4 14.2-14.2 14.2h-39.5c-5.5 0-9.9 4.4-9.9 9.9s4.4 9.9 9.9 9.9h18.6v13.3c0 5.4 4.4 9.8 9.9 9.8z"/></svg>