<svg xmlns="http://www.w3.org/2000/svg" width="64" height="64" viewBox="0 0 64 64"><g fill="#c4a2fc"><path d="M60.85 37.36c5.33-9.1.28-20.35-9.94-23.48a20 20 0 00-18.53 3.62 13.68 13.68 0 00-5.23 12.15c1.43 11.82-5.35 15.79-5.64 15.95a1 1 0 00.14 1.81L28.68 50v4.95a3.96 3.96 0 004.08 3.82h4.23l3.75 3.44a2.98 2.98 0 002.03.79H57.4a3 3 0 002.79-4.1 31.62 31.62 0 01-2.1-13.16 18.74 18.74 0 012.76-8.38zM20 55h-6a1 1 0 010-2h6a1 1 0 110 2zM19.55 50.9l-6-3a1 1 0 01.9-1.79l6 3a1 1 0 11-.9 1.79zM13.1 61.45a1 1 0 01.45-1.34l6-3a1 1 0 11.9 1.79l-6 3a1 1 0 01-1.34-.45z"/></g><path fill="#151a6a" d="M42.49 33.6c-.3-.16-7.08-4.13-5.65-15.95A13.68 13.68 0 0031.6 5.5a20 20 0 00-18.53-3.62A16.87 16.87 0 001.2 14.98a15.4 15.4 0 001.93 10.38 18.73 18.73 0 012.77 8.38 31.52 31.52 0 01-.28 6.23A32.19 32.19 0 013.8 46.9 3 3 0 006.59 51h14.63a2.98 2.98 0 002.03-.79L27 46.77h4.23a3.96 3.96 0 004.08-3.83V38l7.03-2.58a1 1 0 00.15-1.81zm-8.53 2.76a1 1 0 00-.65.94v5.64a1.97 1.97 0 01-2.08 1.83h-4.62a1 1 0 00-.67.26l-4.04 3.7a1 1 0 01-.68.27H6.6a1 1 0 01-.92-1.38 34.18 34.18 0 001.93-7.36 33.47 33.47 0 00.3-6.63 20.71 20.71 0 00-3.03-9.28 13.43 13.43 0 01-1.69-9.04A14.87 14.87 0 0113.66 3.79a18.23 18.23 0 0116.67 3.24 11.72 11.72 0 014.52 10.38c-1.17 9.66 2.75 14.68 5.08 16.76zM44 43h6a1 1 0 000-2h-6a1 1 0 000 2zM44.45 38.9l6-3a1 1 0 00-.9-1.79l-6 3a1 1 0 10.9 1.79zM50.45 48.1l-6-3a1 1 0 10-.9 1.8l6 3a1 1 0 00.9-1.8z"/></svg>