<svg xmlns="http://www.w3.org/2000/svg" width="55.5147" height="70.5696" viewBox="0 0 14.6883 18.6715"><path d="M11.2723 15.1792l-2.4857 1.1207a.292.292 0 01-.2089 0l-2.402-1.131c-.1066-.0412-.176-.1407-.176-.2515l-.0124-12.574 5.461-.1228v12.707c0 .1108-.0699.2103-.176.2516" fill="#fff"/><path d="M8.088 3.248l-1.5618-.6428 1.6133-.7084 1.5166.6357z" fill="#fff"/><path d="M5.9871 2.3433l.0127 12.5744c0 .1108.0695.2102.1757.2512l2.5069 1.2068.0303-12.8802z" fill="#dadada"/><path d="M8.6822 3.514v12.7957" fill="#fff"/><path d="M8.091 7.873l-1.542-.6449-.0229-4.6231 1.529.648z" fill="#f4c151"/><path d="M6.7728 7.918l.9363.4148M6.5458 8.2516l1.501.6802M6.9166 14.9416l.6967.313" fill="#fff"/><path d="M5.9904 5.975a.0882.0882 0 01-.0882-.0883l-.001-.9398a.0882.0882 0 11.1764-.0004l.001.9402a.0882.0882 0 01-.0882.0882z" fill="#41404d"/><path d="M8.681 16.4075a.3755.3755 0 01-.1347-.025l-2.408-1.1335a.3555.3555 0 01-.227-.3312L5.903 6.377a.0882.0882 0 11.1764-.0004l.0085 8.5408c0 .0748.0472.1411.12.1697l2.4076 1.1331a.1979.1979 0 00.1394-.0024l2.4814-1.119c.077-.03.1242-.0967.1242-.1712V2.311l-5.285.1189.001 1.0844a.0882.0882 0 01-.1764 0l-.001-1.1708a.0885.0885 0 01.0861-.0882l5.4614-.1228a.092.092 0 01.0638.025.0895.0895 0 01.0265.0632v12.707c0 .1479-.0914.2787-.2322.3338l-2.4818 1.119a.3863.3863 0 01-.1418.0271" fill="#41404d"/><path d="M8.6822 16.3979a.0882.0882 0 01-.0882-.0882V3.514a.0882.0882 0 01.1764 0v12.7956a.0882.0882 0 01-.0882.0882M6.637 7.1694l1.365.5707-.0346-4.4284-1.3522-.5729zm1.4542.792a.09.09 0 01-.0342-.0071l-1.542-.6449a.0874.0874 0 01-.054-.0808l-.0229-4.6228c0-.03.0148-.0575.0392-.074a.0883.0883 0 01.0836-.0075l1.529.6477a.0884.0884 0 01.0535.0805l.036 4.62a.0876.0876 0 01-.0391.0737.0874.0874 0 01-.049.0151M7.709 8.4211a.0909.0909 0 01-.0356-.0074l-.9363-.4152a.0878.0878 0 01-.0448-.116.0877.0877 0 01.116-.0452l.9363.4148a.0882.0882 0 01-.0356.169M8.047 9.0202a.0875.0875 0 01-.0364-.0077l-1.501-.6805a.0882.0882 0 11.0726-.1605l1.501.6801a.0883.0883 0 01-.0363.1686M7.6134 15.3428a.0899.0899 0 01-.0364-.0077l-.6967-.313a.0877.0877 0 01-.044-.1164c.0197-.0444.0722-.0645.1163-.0444l.6971.3129a.0882.0882 0 01-.0363.1686" fill="#41404d"/><path d="M8.641 3.4963l-2.5876-1.065a.0837.0837 0 01-.0014-.156l2.6974-1.18a.0907.0907 0 01.0705-.0003l2.5753 1.053a.0841.0841 0 01.0018.1556l-2.6843 1.192a.0918.0918 0 01-.0716.0007" fill="#fff"/><path d="M8.088 3.248l-1.5618-.6428 1.6133-.7084 1.5166.6357z" fill="#f4c151"/><path d="M8.7868 1.1766L6.0877 2.356l2.587 1.059c.0003 0 .0006.0004.0013 0h.0007l2.6847-1.192zm-.1111 2.4148a.1766.1766 0 01-.0685-.0134L6.0196 2.513a.173.173 0 01-.108-.1588.1738.1738 0 01.1059-.1602l2.6963-1.1793a.1812.1812 0 01.1404-.001l2.5745 1.0526c.0664.0282.1073.0886.108.1584a.171.171 0 01-.1037.1595l-2.6847 1.192a.179.179 0 01-.0726.0152" fill="#41404d"/><path d="M6.7516 2.6027l1.3346.5493 1.3497-.6156-1.2954-.5437zm1.3363.7334a.0861.0861 0 01-.0335-.0067l-1.5617-.6428a.0879.0879 0 01-.0018-.1622l1.6133-.708a.0866.0866 0 01.0695-.0008l1.5166.6357a.0883.0883 0 01.0021.1616l-1.5678.7154a.0879.0879 0 01-.0367.0078" fill="#41404d"/><path d="M12.4467 7.528c.3115.8551 1.174 3.3419 1.1529 4.8457-.016 1.131-.09 4.1861-.09 4.1861l-.0014.0833c-.0081.57-.8135.9493-1.784.9398-.9701-.0092-1.7586-.5-1.7505-1.0697l.001-.0836s-.0112-2.8956.0047-4.0266c.0211-1.5042.861-4.0382 1.1966-4.8874z" fill="#fff"/><path d="M10.9353 16.0444c.0293-1.216-.0339-2.437-.2646-3.6315-.097-.5034-.14-1.174.0205-1.9558l.4565-2.6733c-.3274.8294-1.1476 3.3038-1.1684 4.7727-.0155 1.1042-.0046 3.932-.0046 3.932l-.001.0816c-.0057.3898.927.9168.927.9168z" fill="#dadada"/><path d="M11.7854 14.425c-.7807-.0073-1.5145-.2765-1.8119-.6247a230.999 230.999 0 00-.0024 1.4774l.001.4304c.3084.355.9984.6498 1.758.6573.7577.0074 1.483-.2174 1.8023-.5648.0042-.1422.0095-.2269.0144-.3948.0141-.4636.005-1.0072.0163-1.4859-.3073.3422-.9974.5126-1.7777.5052" fill="#f4c151"/><path d="M11.0196 14.9838c.1806.235.1922.5289.0264.6559-.1658.1273-.4462.0402-.6269-.1948-.1802-.235-.1922-.5284-.0264-.6558.1658-.1273.4466-.0402.6269.1947" fill="#fff"/><path d="M11.7613 17.6715h-.0374c-.6378-.0063-1.2404-.2218-1.5727-.5623-.1767-.181-.2684-.3873-.2656-.5972l.0014-.0833c-.0004-.0275-.0113-2.9083.0046-4.027.0134-.9532.3454-2.2634.6216-3.1954.0317-.1073.0638-.2124.0956-.3154.0363-.1168.0723-.23.108-.3394.1322-.4067.2698-.7962.3774-1.0682a.088.088 0 01.0822-.0557h.0007l1.2704.0123a.0885.0885 0 01.0825.0579c.1828.5034.3588 1.0283.5087 1.5176a.0886.0886 0 01-.0585.1105.089.089 0 01-.1101-.0586 31.1325 31.1325 0 00-.485-1.4517l-1.1487-.0113c-.1027.265-.2297.6255-.3521 1.002a28.3819 28.3819 0 00-.1072.3368c-.0314.102-.0632.2067-.095.3133-.273.921-.601 2.2147-.6141 3.1478-.0159 1.1173-.005 3.9963-.0046 4.0252l-.0014.085c-.0021.162.0723.325.2152.4717.3009.308.8558.503 1.4478.509h.0356c.942 0 1.6528-.3637 1.6595-.853l.0014-.0836c.0007-.0314.0744-3.0684.09-4.1857.0056-.3947-.0512-.8914-.1683-1.477a.0877.0877 0 01.0695-.1034.0873.0873 0 01.1037.0688c.1192.5976.1774 1.107.1714 1.5141-.0158 1.1183-.0892 4.1564-.09 4.1868l-.0013.0825c-.0082.598-.778 1.027-1.8352 1.027" fill="#41404d"/><path d="M10.0605 15.6743c.3245.35 1.0047.5962 1.6704.6029h.036c.707 0 1.3719-.2036 1.6788-.5133l.013-.361c.0075-.2476.0085-.5185.0092-.7898.0007-.1658.0015-.332.0036-.4932-.3535.259-.9592.3983-1.6867.3934-.677-.0067-1.3462-.2092-1.724-.5087-.0014.423-.0017.8741-.001 1.2728zm1.7053.7792h-.037c-.7388-.0074-1.4715-.2836-1.8229-.6875a.0865.0865 0 01-.0218-.0575l-.0007-.4308c-.0007-.4639-.0004-.9987.002-1.4777a.088.088 0 01.1552-.0571c.288.3372 1.0225.587 1.7457.594.804.0088 1.4365-.17 1.7113-.476a.0894.0894 0 01.098-.0232.089.089 0 01.0558.0843c-.0053.2216-.006.4569-.007.6918-.0008.273-.0018.5454-.0092.7948l-.0145.3948a.089.089 0 01-.0233.0568c-.3274.357-1.06.5933-1.8316.5933" fill="#41404d"/><path d="M10.5746 14.8188c-.0483 0-.0927.0127-.128.0403-.125.096-.1051.3397.0427.5323.0762.0991.1739.1711.2751.2025.0896.0279.1711.0194.228-.024.0567-.0437.086-.1196.0821-.2141-.0042-.1059-.0487-.2191-.1249-.3182-.1058-.138-.2536-.2188-.375-.2188m.2904.968a.5185.5185 0 01-.1531-.0243c-.1355-.0423-.2643-.1358-.3627-.2639-.213-.2776-.2177-.6201-.0102-.7796.2042-.1573.5415-.0617.7503.211.0985.128.156.2769.1616.4187.006.1535-.0476.2815-.151.361-.0667.051-.147.0772-.235.0772" fill="#41404d"/><path d="M12.4474 7.4742c-.0025.1814-.289.3256-.64.3225-.3506-.0036-.6332-.1535-.6307-.3348l.0159-1.1307 1.2707.0124z" fill="#f4c151"/><path d="M12.4476 7.4742h.002zm-1.168-1.0537l-.0145 1.0424c-.0004.029.014.0586.0433.0886.0907.0931.2872.1549.5.157h.0109c.3076 0 .5383-.1235.54-.2353l.0145-1.0425zm.5404 1.4644h-.013c-.2618-.0029-.5007-.0833-.6248-.2103-.0625-.0639-.0942-.138-.0935-.2141l.0158-1.1303a.0885.0885 0 01.0882-.0872h.0007l1.2707.0124a.0878.0878 0 01.0875.0892l-.0158 1.1307v.0003c-.0036.2343-.3105.4093-.7158.4093" fill="#41404d"/><path d="M12.4627 6.382c-.0025.1813-.289.3256-.6396.3224-.351-.0035-.6336-.1535-.6311-.3348l.0092-.6346 1.2703.0123z" fill="#f4c151"/><path d="M11.288 5.8242l-.0075.5468c-.0003.0286.0142.0586.0434.0882.0907.0931.2872.1549.5003.157h.011c.3079 0 .5379-.1231.5393-.2353l.0078-.5461zm.5482.9684h-.0141c-.2614-.0028-.5003-.0833-.6245-.21-.0624-.0638-.0945-.1379-.0934-.214l.0088-.6347a.088.088 0 01.0882-.0868h.0007l1.2703.012a.0879.0879 0 01.0875.0896l-.0088.6343c-.0032.235-.3094.4096-.7147.4096" fill="#41404d"/><path d="M12.5831 5.7484c-.0032.2307-.34.4142-.7525.4103-.4124-.0039-.7443-.194-.7408-.4248.0032-.2307.34-.4141.7525-.4102.4124.0038.744.194.7408.4247" fill="#f4c151"/><path d="M12.4732 5.5369c-.0025.1813-.2893.3256-.64.3224-.351-.0035-.6332-.1534-.6307-.3348l.0046-.3157 1.2703.012z" fill="#f4c151"/><path d="M12.5833 5.7484h.0021zm-.7546-.3365c-.3817 0-.6488.169-.6505.323-.0007.0484.0215.0957.0663.142.1143.117.339.1911.5867.1936h.013c.3814 0 .6484-.169.6509-.3232.0007-.048-.0219-.0956-.0663-.1414-.115-.1171-.3398-.1916-.5878-.194zm.0155.835h-.0148c-.297-.0028-.563-.0953-.7112-.247-.0776-.0797-.1178-.1721-.1164-.2674.0035-.28.3658-.497.8269-.497h.0141c.2977.0028.5637.0952.712.247.0775.0796.118.1717.1167.267v.0003c-.0043.2805-.3662.497-.8273.497" fill="#41404d"/><path d="M11.2938 5.2978l-.0032.2279c-.0003.029.0141.0586.0434.0885.091.0932.2875.1546.5003.1567.3157.0116.5492-.1214.5507-.2353l.0031-.2272zm.5525.6495h-.0142c-.261-.0025-.5002-.083-.624-.2096-.0625-.0638-.095-.138-.0939-.2141l.0046-.3161a.088.088 0 01.0882-.0868h.0007l1.2704.012a.0879.0879 0 01.0875.0896l-.0043.3157c-.0031.235-.3093.4093-.715.4093" fill="#41404d"/><path d="M12.4775 5.221c-.0024.1813-.289.3256-.64.3224-.351-.0035-.6332-.1535-.6307-.3348.0028-.1813.2893-.3256.64-.322.351.0031.6332.153.6307.3344" fill="#f4c151"/><path d="M11.835 4.9747c-.3076 0-.538.123-.5397.2353-.0004.0289.014.0585.0433.0885.0914.0931.2872.1545.5.1566.3072-.0038.5492-.1217.5506-.2353v-.0003c.0004-.0286-.014-.0582-.0434-.0882-.0906-.0931-.2868-.1549-.4995-.1566zm.0159.6568h-.0141c-.2607-.0024-.5003-.0829-.6244-.2095-.0621-.0639-.0946-.138-.0935-.2145.0031-.2346.31-.4092.715-.4092h.0142c.261.0024.5002.0829.6244.2099.062.0638.0942.1379.0931.2141-.0032.2346-.3097.4092-.7147.4092" fill="#41404d"/><path d="M3.5056 6.9697c.3041.835 1.1466 3.2632 1.1258 4.7322-.0156 1.1042-.0879 4.0873-.0879 4.0873l-.0014.0815c-.0074.5566-.7945.927-1.742.9179-.9472-.0092-1.717-.4883-1.7092-1.045l.001-.081s-.0109-2.828.0046-3.9325c.0205-1.4686.841-3.9433 1.1684-4.7724z" fill="#fff"/><path d="M2.1006 15.2183c.0292-1.2164-.034-2.4373-.2646-3.6319-.097-.5034-.14-1.1736.0204-1.9554l.4565-2.6733c-.3277.829-1.1476 3.3037-1.1684 4.7723-.0155 1.1046-.0046 3.9324-.0046 3.9324l-.0014.0812c-.0053.3902.9271.9172.9271.9172z" fill="#dadada"/><path d="M2.86 13.7005c-.7623-.0074-1.4788-.2698-1.7692-.61-.0024.4679-.0028.99-.002 1.4426 0 .1633.0003.2452.0006.3835.3013.3464.9751.6717 1.7166.6787.7398.007 1.4482-.212 1.7597-.5514.0046-.139.0095-.2215.0145-.3856.0137-.4526.0049-.9835.0155-1.451-.2999.3341-.9733.5006-1.7357.4932" fill="#f4c151"/><path d="M2.0895 14.1972c.163.2124.1637.485.0018.6092-.162.1246-.4251.0533-.5881-.159-.163-.212-.1637-.4851-.0018-.6093.162-.1246.4251-.0533.5881.159" fill="#fff"/><path d="M2.8366 16.877h-.037c-.623-.0064-1.2122-.217-1.5371-.55-.1729-.1768-.2628-.379-.26-.5846l.0014-.0815c-.0003-.0265-.011-2.8395.0042-3.932.012-.8291.2756-1.941.4946-2.7281a.0883.0883 0 01.17.0473c-.2165.7768-.4765 1.8732-.4882 2.6832-.0151 1.0911-.0045 3.9024-.0042 3.9306l-.0014.0833c-.0021.1573.0702.3157.2099.4586.2935.3006.8347.4907 1.4125.4967.9349.019 1.646-.3482 1.6528-.8308l.001-.0815c.0007-.031.0727-2.9965.0882-4.0876a.0882.0882 0 01.0882-.0868h.0014a.088.088 0 01.0868.0893c-.0155 1.0922-.0875 4.0583-.0882 4.0883l-.001.0805c-.0081.5856-.7603 1.005-1.7939 1.005M4.5473 10.7874a.0885.0885 0 01-.0872-.0745c-.2007-1.2865-.714-2.8197-1.0163-3.6554l-1.1187-.011c-.1136.2932-.2554.7006-.3845 1.106a.0884.0884 0 01-.1683-.054c.1411-.4417.2907-.8692.4106-1.173a.088.088 0 01.0822-.0557h.0007l1.2408.0116a.0888.0888 0 01.0822.0582c.3012.8276.8378 2.4148 1.046 3.7458a.0885.0885 0 01-.0875.102" fill="#41404d"/><path d="M1.1776 14.883c.2784.3001.8957.617 1.6292.6243.7027.0117 1.3677-.193 1.6721-.4999l.0053-.1358c.0025-.0628.0053-.1273.0078-.2159.0074-.2423.008-.5073.0091-.7726.0004-.1605.0011-.3206.0032-.4766-.3457.252-.921.3927-1.645.382-.6597-.0063-1.3116-.2031-1.6813-.4941-.0014.412-.0014.8505-.001 1.2386zm1.6634.8007h-.036c-.8075-.0081-1.4898-.3732-1.7819-.709a.0865.0865 0 01-.0219-.0576l-.0007-.3838c-.0007-.453-.0003-.975.0021-1.4432a.088.088 0 01.0579-.0822.087.087 0 01.0974.0254c.2808.3284.997.5722 1.7028.5789.775.0025 1.402-.1658 1.6694-.4639a.0886.0886 0 01.0984-.023.0874.0874 0 01.0554.084c-.005.216-.0057.4452-.0064.6742-.001.267-.0017.5337-.0091.7779-.0029.0889-.0057.1541-.0082.2173l-.0063.1679a.0862.0862 0 01-.023.0568c-.3203.3489-1.0364.5803-1.79.5803" fill="#41404d"/><path d="M1.6895 14.065c-.0515 0-.0973.0145-.1344.043-.1213.0928-.1129.3155.018.4858.1306.17.3436.236.4646.143.121-.0932.1126-.3155-.018-.4859-.0673-.0874-.1552-.1492-.2476-.1746a.3291.3291 0 00-.0826-.0113m.2149.89c-.1655 0-.3457-.0902-.4713-.254-.1923-.2504-.1856-.5792.0144-.733.1006-.0776.2318-.0991.3705-.0617.1298.035.2511.1192.3414.237.1923.2505.186.5793-.014.7331-.0696.0533-.1535.0787-.241.0787" fill="#41404d"/><path d="M3.5063 6.9172c-.0025.177-.2822.3178-.6248.3146-.3425-.0031-.6184-.1495-.616-.3266l.0156-1.1042 1.2407.0123z" fill="#f4c151"/><path d="M3.5065 6.9172h.0021zM2.368 5.8902l-.0141 1.016c-.0004.0275.0137.0565.042.085.0885.0907.2793.1507.4864.1524h.011c.2991 0 .5235-.1192.5249-.2275l.0145-1.0157zM2.894 7.32h-.0134c-.2555-.0024-.4897-.0811-.611-.2053-.0614-.0628-.0932-.1358-.0921-.211L2.193 5.8a.0882.0882 0 01.0882-.0871h.0007l1.2407.0123a.087.087 0 01.0625.0265.0891.0891 0 01.025.0628l-.0155 1.1038c-.0035.2304-.3038.4018-.7006.4018" fill="#41404d"/><path d="M3.5213 5.8506c-.0025.177-.2822.3182-.6248.3146-.3425-.0031-.6184-.1495-.616-.3266l.0089-.6199 1.2407.0124z" fill="#f4c151"/><path d="M3.5215 5.8506h.0021zM2.3764 5.308l-.0074.532c-.0004.0275.0134.056.042.0846.0881.0907.2793.1507.4864.1524.3055.0029.5345-.1174.5359-.2275l.0074-.5313zm.5334.9454h-.0141c-.2555-.0024-.4897-.0811-.611-.2053-.0614-.0628-.0932-.1354-.0921-.2106l.0088-.6198a.0882.0882 0 01.0882-.0872h.0007l1.2407.0124a.087.087 0 01.0624.0265.0891.0891 0 01.025.0627l-.0087.6195c-.0036.2307-.3034.4018-.7.4018" fill="#41404d"/><path d="M3.639 5.232c-.0032.225-.3324.4046-.7349.4008-.4029-.004-.7267-.1898-.7235-.415.0031-.225.3323-.4045.7348-.4007.4029.004.7267.1898.7236.4149" fill="#f4c151"/><path d="M3.5315 5.0255c-.0025.177-.2823.3178-.6248.3146-.3426-.0035-.6184-.1495-.616-.3266l.0043-.3087 1.2407.012z" fill="#f4c151"/><path d="M2.9027 4.9054c-.3718 0-.6318.164-.6339.3136-.0007.0466.0212.0924.0646.1369.111.114.3302.1863.5715.1887h.0127c.371 0 .631-.164.6332-.314.0007-.0462-.0212-.092-.0642-.1365-.1115-.114-.3306-.1862-.5719-.1887zm.0149.8156H2.903c-.2907-.0028-.551-.0935-.696-.242-.0762-.078-.1161-.169-.1147-.2624.0039-.2749.3588-.4876.8103-.4876h.0138c.2907.0028.5514.0935.6964.242.0762.078.1157.169.1143.2621-.0039.2752-.3584.488-.8096.488" fill="#41404d"/><path d="M3.5316 5.0255h.0022zM2.3823 4.794l-.0032.2205c-.0003.0275.0134.0561.0416.085.0886.0907.2798.1507.4869.1524.3005-.0017.534-.1178.5358-.2275l.0032-.2201zm.537.6343h-.0135c-.2558-.0024-.49-.0811-.611-.2056-.0614-.0628-.0931-.1355-.092-.2107l.0042-.3083a.0882.0882 0 01.0882-.0871h.001l1.2407.012a.088.088 0 01.0621.0268.0891.0891 0 01.025.0628l-.0042.3083c-.0035.2304-.3037.4018-.7006.4018" fill="#41404d"/><path d="M3.5358 4.717c-.0025.177-.2823.3178-.6248.3146-.3425-.0031-.6184-.1496-.616-.3266.0025-.1771.2823-.3183.6248-.3147.343.0032.6184.1496.616.3266" fill="#f4c151"/><path d="M3.536 4.717h.002zm-.6276-.2385c-.2992 0-.5236.1192-.525.2275-.0003.0279.0134.0561.0416.085.0886.0907.2798.1507.4869.1524h.011c.299 0 .523-.1189.5248-.2275.0004-.0279-.0137-.0565-.042-.0854-.0885-.0903-.2793-.1503-.4864-.152zm.0151.6413h-.0134c-.2557-.0024-.49-.0811-.611-.2053-.0614-.0628-.0931-.1358-.092-.211.0031-.2328.3093-.399.714-.4014.2554.0025.4896.0811.611.2053.0613.0628.0931.1358.092.2106-.0035.2304-.3037.4018-.7006.4018" fill="#41404d"/></svg>