<svg viewBox="0 0 32 32" width="64" height="64" xmlns="http://www.w3.org/2000/svg"><path d="M21.945 3.118l-1.493-1.493H1.625v27.257h8.43l1.493 1.493h18.827V3.118z"/><path fill="#999" d="M1.625 4.777h6.867l1.125-1.125h6.912l1.518 1.518h5.45v-.25h-5.346l-1.519-1.518H1.625zM21.52 28.601h-6.525v-.25h6.421l.789-.788h8.17v.25h-8.066z"/><path fill="#FFF" d="M1.625 1.625h2.612v27.257H1.625z" opacity=".25"/><path fill="#FFF" d="M1.625 3.402h2.612v1.375H1.625z" opacity=".25"/><g><path d="M22.118 7.843H9.882c-1.152 0-2.039.888-2.039 2.039v12.235c0 1.151.888 2.039 2.039 2.039h12.235c1.151 0 2.039-.888 2.039-2.039V9.882c.001-1.151-.887-2.039-2.038-2.039zm-6.106 4.952c1.809 0 3.275 1.421 3.275 3.174 0 1.752-1.466 3.174-3.275 3.174-1.808 0-3.274-1.422-3.274-3.174 0-1.753 1.467-3.174 3.274-3.174zm6.106 8.813c0 .357-.153.51-.51.51H10.392c-.356 0-.51-.152-.51-.51v-7.137l1.271.276c-.136.444-.211.913-.211 1.399 0 2.711 2.271 4.911 5.069 4.911 2.8 0 5.069-2.2 5.069-4.911 0-.487-.074-.956-.21-1.399l1.246-.276v7.137zm0-9.177c0 .282-.228.51-.51.51h-2.039c-.282 0-.51-.228-.51-.51v-2.039c0-.282.228-.51.51-.51h2.039c.282 0 .51.228.51.51v2.039z" fill="#FFF"/></g></svg>