<svg xmlns="http://www.w3.org/2000/svg" width="80" height="80"><path fill="#788b9c" d="M42 16h36v2H42zM42 22h26v2H42zM42 56h36v2H42zM42 62h26v2H42z"/><path fill="#ffc49c" d="M2.5 4.5h31v31h-31z"/><path d="M33 5v30H3V5h30m1-1H2v32h32V4z" fill="#a16a4a"/><path fill="#bae0bd" d="M2.5 44.5h31v31h-31z"/><path d="M33 45v30H3V45h30m1-1H2v32h32V44z" fill="#5e9c76"/><path fill="#a16a4a" d="M24 20l-6 5 8 10h7v-7z"/><circle cx="26" cy="12" r="3" fill="#fff"/><path fill="#e09367" d="M29 35H3v-7l10-10z"/><path d="M18 60l-2.913-4.855C13.728 52.881 15.359 50 18 50s4.272 2.881 2.913 5.145L18 60zM18 60l2.913 4.855C22.272 67.119 20.641 70 18 70s-4.272-2.881-2.913-5.145L18 60z" fill="#fff"/><path d="M20 61l-7.54-1.001c-2.64.044-4.319-2.808-2.999-5.095 1.32-2.287 4.631-2.259 5.912.05L20 61z" fill="#fff"/><path d="M17 59l6.54 1.001c2.64-.044 4.319 2.808 2.999 5.095-1.32 2.287-4.631 2.259-5.912-.05L17 59z" fill="#fff"/><path d="M20 59l-4.627 6.046c-1.282 2.309-4.592 2.337-5.912.05-1.32-2.287.359-5.14 2.999-5.095L20 59z" fill="#fff"/><path d="M16 61l4.627-6.046c1.282-2.309 4.592-2.337 5.912-.05 1.32 2.287-.359 5.14-2.999 5.095L16 61z" fill="#fff"/><circle cx="18" cy="60" r="4" fill="#ffeea3"/></svg>