<svg xmlns="http://www.w3.org/2000/svg" width="62" height="62" viewBox="0 0 54 54"><path style="fill:#ff2424;" d="M27 6a1 1 0 001-1V1a1 1 0 10-2 0v4a1 1 0 001 1zM51 24h-4a1 1 0 100 2h4a1 1 0 100-2zM7 24H3a1 1 0 100 2h4a1 1 0 100-2zM43.264 7.322l-2.828 2.828a.999.999 0 101.414 1.414l2.828-2.828a.999.999 0 10-1.414-1.414zM12.15 38.436l-2.828 2.828a.999.999 0 101.414 1.414l2.828-2.828a.999.999 0 10-1.414-1.414zM41.85 38.436a.999.999 0 10-1.414 1.414l2.828 2.828a.997.997 0 001.414 0 .999.999 0 000-1.414l-2.828-2.828zM12.15 11.564a.997.997 0 001.414 0 .999.999 0 000-1.414l-2.828-2.828a.999.999 0 10-1.414 1.414l2.828 2.828zM27 13c-6.617 0-12 5.383-12 12a1 1 0 102 0c0-5.514 4.486-10 10-10a1 1 0 100-2z"/><path style="fill:#ff2424;" d="M27 8c-9.374 0-17 7.626-17 17a16.96 16.96 0 0011 15.9V50a1 1 0 001 1h1v2a1 1 0 001 1h6a1 1 0 001-1v-2h1a1 1 0 001-1v-9.1A16.96 16.96 0 0044 25c0-9.374-7.626-17-17-17zm4.688 31.242a1 1 0 00-.688.95V42h-8v-1.808a1 1 0 00-.688-.95A14.966 14.966 0 0112 25c0-8.271 6.729-15 15-15s15 6.729 15 15c0 6.49-4.145 12.214-10.312 14.242z"/></svg>