<svg xmlns="http://www.w3.org/2000/svg" width="64" height="64" fill-rule="evenodd" clip-rule="evenodd" image-rendering="optimizeQuality" shape-rendering="geometricPrecision" text-rendering="geometricPrecision" viewBox="0 0 369 369"><defs><style>.fil2{fill:#4d322b}</style></defs><g id="Layer_x0020_1"><g id="_444239888"><rect width="369" height="369" fill="#6a453b" rx="40" ry="40"/><path fill="#fff" d="M83 172c0 18-2 92 3 104 2 5 6 10 9 14 8 9 21 13 33 13h115c27 0 46-18 46-39v-92c0-4-7-3-12-3h-48c1 4 9 17 9 33 0 37-41 61-75 45-14-7-25-21-28-38-3-14 2-27 8-40H96c-5 0-13-1-13 3zm103 58c-7 0-15-3-20-8-20-19-4-51 17-51 18 0 31 9 33 28 1 17-14 31-30 31zm-41-30c0 27 28 50 57 38 38-17 31-76-15-78-21-2-42 19-42 40zm-22-53h-8V98c-3 0-6 0-6 4v45h-8v-42c-11 3-18 23-18 37s-2 22 3 22h61l16-10c7-3 14-5 20-5 9-1 17 1 25 4 30 15-10 11 81 11v-28c0-21-19-39-40-39H137v50h-8V97h-6v50zm121-33h18c4 0 8 4 8 8v18c0 4-4 7-8 7h-18c-4 0-7-3-7-7v-18c0-4 3-8 7-8z"/><path d="M216 199c-2-19-15-28-33-28-21 0-37 32-17 51 5 5 13 8 20 8 16 0 31-14 30-31z" class="fil2"/><path d="M225 189a40 40 0 01-63 44l19 19c28 2 56-18 57-48l-13-15z" class="fil2"/><path d="M289 172v92c0 21-19 39-46 39H128c-11 0-23-4-31-11l78 77h154l40-40V202l-86-86c3 6 6 13 6 20v28c-91 0-51 4-81-11-6-2-12-4-18-4l12 14c12 5 20 15 23 26l13 15v-2c0-16-8-29-9-33h48c5 0 12-1 12 3z" class="fil2"/><path d="M244 147h18c4 0 8-3 8-7v-18c0-4-4-8-8-8h-18c-4 0-7 4-7 8v18c0 4 3 7 7 7z" class="fil2"/></g></g></svg>