<svg xmlns="http://www.w3.org/2000/svg" width="55px" height="55px" fill="none" viewBox="0 0 48 48">
  <defs/>
  <path fill="#25D366" d="M24 48c13.2548 0 24-10.7452 24-24S37.2548 0 24 0 0 10.7452 0 24s10.7452 24 24 24z"/>
  <path fill="#FDFDFD" fill-rule="evenodd" d="M24.7911 37.3525h-.0059c-2.3885-.0008-4.7354-.6001-6.8199-1.7371L10.4 37.6l2.0246-7.3952c-1.2489-2.1643-1.906-4.6193-1.905-7.1346C10.5228 15.2017 16.9248 8.8 24.7909 8.8c3.8177.0016 7.4009 1.4879 10.0953 4.1854 2.6944 2.6974 4.1774 6.2829 4.1759 10.0961-.0031 7.8668-6.4026 14.2678-14.271 14.271zm-6.4752-4.3206l.4331.257c1.8212 1.0808 3.9088 1.6526 6.0373 1.6534h.0048c6.5377 0 11.8588-5.3212 11.8614-11.8616.0013-3.1695-1.2313-6.1496-3.4708-8.3917-2.2395-2.2421-5.2177-3.4775-8.386-3.4786-6.5428 0-11.8639 5.3207-11.8665 11.8607-.0009 2.2413.6262 4.424 1.8135 6.3125l.2821.4488-1.1983 4.3771 4.4894-1.1776zm13.1765-6.8779c.2487.1202.4167.2014.4884.3211.0891.1487.0891.8627-.2079 1.6957-.2973.833-1.7219 1.5932-2.407 1.6955-.6143.0919-1.3918.1302-2.246-.1413-.5179-.1643-1.182-.3837-2.0328-.7511-3.3429-1.4435-5.6021-4.6835-6.0291-5.2959-.0299-.0429-.0508-.0729-.0625-.0885l-.0028-.0038c-.1887-.2518-1.4532-1.9389-1.4532-3.6849 0-1.6426.8068-2.5035 1.1782-2.8998a6.9012 6.9012 0 00.0698-.075c.3269-.357.7132-.4463.9509-.4463.2377 0 .4757.0022.6835.0127.0256.0013.0523.0011.0798.0009.2078-.0012.4669-.0027.7225.6112.0983.2362.2422.5865.3939.9559.3068.747.6459 1.5724.7055 1.6918.0892.1785.1486.3867.0297.6247-.0178.0357-.0343.0694-.0501.1016-.0893.1823-.1549.3163-.3065.4933a14.2722 14.2722 0 00-.1827.2195c-.1227.1494-.2453.2988-.3521.4052-.1786.1778-.3644.3707-.1564.7277.208.357.9237 1.5247 1.9837 2.4703 1.1396 1.0164 2.13 1.446 2.632 1.6637.098.0426.1774.077.2357.1062.3564.1785.5644.1486.7725-.0893.208-.238.8914-1.0413 1.129-1.3982.2377-.3568.4755-.2974.8023-.1785.327.1192 2.0801.9817 2.4367 1.1602.0696.0348.1347.0663.195.0954z" clip-rule="evenodd"/>
</svg>
