<svg xmlns="http://www.w3.org/2000/svg" viewBox="0 0 350 350.3"><defs><style>.b{fill:#ebebeb}.c,.g{fill:#fff}.d{fill:#f5f5f5}.e{fill:#e0e0e0}.f{fill:#519be5}.g{fill-rule:evenodd}.h{fill:#455a64}.i{fill:#263238}.k{fill:#ffbe9d}.l{opacity:.4}.m{fill:#0f5691}.n{opacity:.5}.p{fill:#eb996e}</style></defs><path fill="#fafafa" d="M0 0h350v350.3H0z"/><path d="M93.2 83.8a24 24 0 01-24-24 24 24 0 0124-24 24 24 0 0124 24 24 24 0 01-24 24z" class="b"/><path d="M82.3 54.4h5v16.1h-5zM84.7 52.3a3 3 0 10-3-3 3 3 0 003 3zM95.2 62c0-2.3 1-3.6 3-3.6 1.8 0 2.7 1.3 2.7 3.6v8.4h5V60.4c0-4.3-2.5-6.4-5.9-6.4a5.6 5.6 0 00-4.8 2.6v-2.1h-4.8v16h4.8z" class="c"/><path d="M125.3 11.9l3.3 6 6 3.3-6 3.3-3.3 6-3.3-6-6-3.3 6-3.3 3.3-6z" class="d"/><path d="M262.5 175l2.4 4.4 4.6 2.5-4.6 2.5-2.4 4.5-2.5-4.5-4.5-2.5 4.5-2.5 2.5-4.5z" class="b"/><path d="M269.5 152.6l1 2 2.1 1.2-2 1-1.1 2.1-1.1-2-2-1.1 2-1.1 1-2zM101.8 14.1l1.2 2 2 1.2-2 1.1-1.2 2-1-2-2.1-1.1 2-1.1 1.1-2zM46 203.3a7.3 7.3 0 004.3-6.8 7 7 0 00-6.9-7.2 7 7 0 00-6.7 7.3 7.3 7.3 0 004.4 6.8c-10.5 1.7-9.8 13-9.8 13l24.8-.1s.4-11.5-10-13z" class="e"/><path d="M284 278.5a3.9 3.9 0 00-7.6.2 3.9 3.9 0 00-7.6-.1 5.2 5.2 0 001 3.7 15.8 15.8 0 002.7 3l4 3.5 3.9-3.6a15.8 15.8 0 002.7-3 5.2 5.2 0 001-3.7z" class="b"/><path d="M300.2 130.6l2.7-.5 4.2-9.2-1.1-5.4s4-1 5 6 1 5.2 1 5.2 8.8-1.7 9.7-1c.6.4 2.6 9 3.6 13.7a5.2 5.2 0 01-2.6 5.8 3.8 3.8 0 01-1 .3c-2 .5-13.6 1-13.6 1l-4.5.8zM292.3 130.7l5.3 17.9 4.5-1-3.5-17.8-6.3.9z" class="e"/><path d="M273.4 123.6a28.5 28.5 0 01-38-13.2 28.5 28.5 0 0113-38 28.5 28.5 0 0138.1 13.1 28.5 28.5 0 01-13.1 38.1z" class="f"/><path d="M253.9 104.3a.7.7 0 00.7-.8l-.4-1.6c0-.4-.2-.6-.7-.8a5.6 5.6 0 01-2.8-3 9.2 9.2 0 014.5-12.5c4.7-2.3 8.7-.6 10.6 3.2 2.4 5 2.2 10.4-1 12a3 3 0 01-4.4-2c-.6-2.5-.7-5.4-1.5-7-.7-1.4-2-2.3-3.6-1.5-2 1-2.5 3.6-1.2 6.2A7.5 7.5 0 00256 99l2.4 10.6a21.7 21.7 0 003.1 6.7.3.3 0 00.5-.1 20.9 20.9 0 00.4-7.3l-1.1-5.4a5.6 5.6 0 005.3.1c5.6-2.7 7-9.7 3.6-16.6-2.5-5.2-9.2-7.9-16-4.6-8.2 4-9.5 12-7.1 17 1.4 3 3.9 5.1 6.8 5z" class="c"/><path d="M301.8 204a19.7 19.7 0 01-11.3-25.4 19.6 19.6 0 0125.4-11.3 19.6 19.6 0 0111.3 25.4 19.6 19.6 0 01-25.4 11.3z" class="f"/><path d="M319.1 189a10.6 10.6 0 00-19.7-7.8l-.1.5a10.5 10.5 0 00-.6 5.6l-3.8 4.6 6.2.3a10.6 10.6 0 0018-3zm-13.1 4.7a8.8 8.8 0 01-4-3.1l-3.6-.2 2.2-2.7a8.8 8.8 0 01.2-5.4l.4-.8a8.9 8.9 0 0116.5 6.5l-.2.6a8.9 8.9 0 01-11.5 5.1z" class="g"/><path d="M313 189.2l-1.4-1.5c-.2-.1-.4-.2-.6 0l-1.2.6c-.2.1-.3 0-.5-.1a7.4 7.4 0 01-1.5-2 8 8 0 01-.7-2.1c0-.3.1-.4.3-.5l.5-.3h.1l.3-.3a.5.5 0 00.1-.4v-2.1c0-.6-.3-.6-.4-.6l-.5-.2a1 1 0 00-.7 0 2.9 2.9 0 00-1.7 1.7 3.1 3.1 0 00-.1.9 5.7 5.7 0 00.2 2 10.6 10.6 0 002.7 5.2c2.1 2 2.3 1.6 2.7 1.7a2.6 2.6 0 002-.5 2.2 2.2 0 00.7-1c0-.2-.2-.3-.4-.5z" class="g"/><path d="M46.4 113.1a15 15 0 01-15-15 15 15 0 0115-15 15 15 0 0115 15 15 15 0 01-15 15z" class="f"/><path d="M38.4 103.2a9.3 9.3 0 0014.4-8.3 6.8 6.8 0 001.6-1.7 6.3 6.3 0 01-1.9.5A3.3 3.3 0 0054 92a6.5 6.5 0 01-2 .8 3.3 3.3 0 00-5.7 3 9.3 9.3 0 01-6.7-3.4 3.3 3.3 0 001 4.3 3.4 3.4 0 01-1.5-.4 3.3 3.3 0 002.6 3.3 3.2 3.2 0 01-1.4 0 3.3 3.3 0 003 2.3 6.5 6.5 0 01-4.9 1.4z" class="c"/><path d="M73.3 281a25.8 25.8 0 01-31-19 25.8 25.8 0 0119-31.2A25.8 25.8 0 0192.6 250a25.8 25.8 0 01-19.2 31z" class="h"/><path d="M64.7 244.7c3.6-1 4-1 5.5-1.3a8.1 8.1 0 012.7-.1 4.6 4.6 0 011.8.6 4.5 4.5 0 011.4 1.4 7.9 7.9 0 011.1 2.5c.4 1.4.6 1.8 1.4 5.5l1.3 5.6a8.2 8.2 0 01.1 2.7 4.5 4.5 0 01-.6 1.8 4.4 4.4 0 01-1.4 1.4 7.6 7.6 0 01-2.4 1c-1.5.5-2 .6-5.6 1.4l-5.6 1.3a8.1 8.1 0 01-2.6.1 4.4 4.4 0 01-1.9-.6 4.5 4.5 0 01-1.4-1.4 7.7 7.7 0 01-1-2.4c-.5-1.4-.6-1.9-1.5-5.5l-1.2-5.6a8.1 8.1 0 01-.1-2.7 4.3 4.3 0 01.6-1.8 4.4 4.4 0 011.4-1.4A7.9 7.9 0 0159 246l5.5-1.4m-.5-2.5l-5.7 1.4a10.4 10.4 0 00-3.2 1.5 7 7 0 00-2 2.1 7 7 0 00-1 2.9 10.5 10.5 0 00.1 3.4l1.3 5.7L55 265a10.5 10.5 0 001.4 3.2 7.3 7.3 0 005 3 10.5 10.5 0 003.5-.1l5.7-1.3 5.7-1.4a10.4 10.4 0 003.2-1.4 7 7 0 002-2.2 7 7 0 001-2.8 10.5 10.5 0 00-.1-3.5l-1.3-5.7-1.4-5.7a10.5 10.5 0 00-1.5-3.2 7.3 7.3 0 00-5-3 10.6 10.6 0 00-3.5.1l-5.6 1.3" class="c"/><path d="M65.7 248.9a7.3 7.3 0 108.7 5.4 7.3 7.3 0 00-8.7-5.4m2.7 11.6A4.7 4.7 0 1172 255a4.7 4.7 0 01-3.5 5.6M74.6 246.5a1.7 1.7 0 11-2-1.3 1.7 1.7 0 012 1.3" class="c"/><path d="M268.8 258.3a12 12 0 01-12-12 12 12 0 0112-12 12 12 0 0112 12 12 12 0 01-12 12z" class="h"/><path d="M267 253.6h2.9v-7.3h2l.2-2.5h-2.3v-1.4c0-.6.1-.8.7-.8h1.6V239h-2c-2.2 0-3.2 1-3.2 2.8v2h-1.5v2.5h1.5z" class="c"/><path d="M227.7 324.9h-96.6a21 21 0 01-21.1-21.1V61.2a21 21 0 0121.1-21h96.7a21 21 0 0121 21v242.6a21 21 0 01-21 21z" class="i"/><path d="M227.7 48.8H209a4.7 4.7 0 00-4.6 4.7V57a4.7 4.7 0 01-4.5 4.8h-36.5a4.7 4.7 0 01-4.6-4.8v-3.4a4.7 4.7 0 00-4.6-4.7h-23a14.7 14.7 0 00-14.7 14.7v236.7a14.8 14.8 0 0014.7 14.8h96.5a14.8 14.8 0 0014.7-14.7V63.6a14.8 14.8 0 00-14.7-14.8z" class="c"/><path d="M229.1 68s-2.4.2-5.4.2h-5.5s2.5-.2 5.5-.2h5.4zM229.1 70.8s-2.4.2-5.4.2l-5.5-.1 5.5-.2 5.4.1zM229.1 73.6zM126.6 76.3a1.6 1.6 0 01.3 0h3.7v-2V73a1.1 1.1 0 011-1h1.3a1.1 1.1 0 011 1.2v3.1l-.1-.1h3.7l-.2.1v-4.6-1.2a1.2 1.2 0 00-.5-.8l-1.6-1.6-1.6-1.6-.7-.7a1.8 1.8 0 00-.8-.6 1 1 0 00-.8.2l-.7.7-1.3 1.3-2.4 2.4a2.6 2.6 0 00-.2 1.4V76.4a2.4 2.4 0 010-.4v-1.4-2-1.4-.7a1.6 1.6 0 01.2-.8l2.4-2.5 1-1.4.7-.7a1.2 1.2 0 011-.2 2 2 0 011 .6l.7.7 1.6 1.6 1.6 1.6a3 3 0 01.4.4 1.2 1.2 0 01.2.6v6H133.6v-.1-3.1a1 1 0 00-.8-1h-1.3a.9.9 0 00-.8.8V76.4H126.8z" class="i"/><path d="M190.4 261.3a5.9 5.9 0 01-1 0l-2.8.1h-21a5.9 5.9 0 01-1-.1 4.8 4.8 0 011 0l2.8-.1h21a4.8 4.8 0 011 0zM230.9 267.6c0 .1-14.9.2-33.2.2s-33.1 0-33.1-.2 14.8-.2 33.1-.2l33.2.2zM210.2 273.6c0 .1-10.2.2-22.8.2s-22.8 0-22.8-.2 10.2-.2 22.8-.2l22.8.2z" class="h"/><path d="M232.2 285.2l-2-2-2 2v-6h4zm-2-2.3l1.8 1.9v-5.4h-3.7v5.3zM177.3 284.5l-.7-.4a2 2 0 01-1 .3 2 2 0 112-2 2 2 0 01-.4 1.4zm-1.7-4a1.9 1.9 0 000 3.8 2 2 0 001-.3l.5.2-.1-.5a1.9 1.9 0 00-1.4-3.1zM182 284.1l-.8-2-1.6-1.4h3.8zm-2-3.3l1.3 1.2.7 1.8 1.2-3z" class="i"/><path d="M181.3 282l2-1.3h.1l-2 1.4z" class="i"/><path fill="#e8505b" d="M171.4 281.1a1.2 1.2 0 00-2.3 0 1.2 1.2 0 00-1.2-1 1.2 1.2 0 00-1.1 1 1.6 1.6 0 00.2 1.2 5.3 5.3 0 00.9.9l1.2 1.1 1.2-1.1a4.6 4.6 0 00.8-1 1.6 1.6 0 00.3-1z"/><path d="M236.4 290.5v-.7-2-7.3-27.6.1h-112l.1-.1v37.6l-.1-.2H234.3 228l-23.3.1-80.4.1h-.2v-.2-37.7h112.5v.1l-.1 27.7v9.3l-.1.8z" class="i"/><path d="M128.8 284l.2-24.9 31 .2v24.9z" class="b"/><path d="M160 259.3h-31l.2-.1-.2 24.8s-.3-.3-.1-.2h16.4l14.6.2-.1.1.1-18 .1-5v-1.3-.5 25H129l-.2-.2.1-24.9v-.2h.2l22.5.3h8.5z" class="i"/><path d="M130 282.5v-21.7l29 .2-.2 21.7z" class="e"/><path d="M129.9 282.4l10.2-13.4 6.2 8.5 4.2-4.5 8.3 9.6-28.9-.2zM149 267.4a2.3 2.3 0 11-2.3-2.3 2.3 2.3 0 012.3 2.3z" class="d"/><path d="M181.3 98.2H148.7a1.6 1.6 0 01.4 0h32a1.4 1.4 0 01.2 0zM227.2 235.5l-3-3-3 2.8v-8.8h6zm-3-3.5v.1l2.7 2.8v-8h-5.4v7.8zM149.5 234.6l-1.4-.7a3.9 3.9 0 01-1.9.6 4 4 0 114-4 4 4 0 01-1 2.6zm-3.4-7.8a3.7 3.7 0 00.1 7.4 3.8 3.8 0 001.8-.5l1.1.4-.2-1a3.7 3.7 0 00-2.8-6.2zM158.7 234l-1.7-4-3-2.8 7.5-.1zm-4-6.6l2.6 2.4 1.4 3.4 2.3-5.8z" class="i"/><path d="M158.6 229.3l4-2.6.2.2-4 2.7z" class="i"/><path d="M137.8 228a2.3 2.3 0 00-4.6.1 2.3 2.3 0 00-4.5 0 3.1 3.1 0 00.5 2.2 9.5 9.5 0 001.6 1.7l2.5 2.2 2.3-2.2a9.8 9.8 0 001.6-1.7 3.1 3.1 0 00.6-2.3z" class="f"/><circle cx="137.1" cy="98.2" r="5.1" class="b"/><path d="M225.3 206.5l-47.4.1-47.4-.1c0-.1 21.2-.2 47.4-.2l47.4.2zM225.3 198.6s-21.2.2-47.4.2-47.4-.1-47.4-.2l47.4-.2c26.2 0 47.4 0 47.4.2zM182.1 214.5l-25.8.1-25.8-.1c0-.1 11.6-.2 25.8-.2l25.8.2z" class="h"/><path d="M175.8 300.5a2 2 0 11-2-2 2 2 0 012 2zM182 300.5a2 2 0 11-4 0 2 2 0 114 0zM188.2 300.6a2 2 0 11-2-2.1 2 2 0 012 2z" class="i"/><path d="M125 108.2h112.1v68.6H125z" class="e"/><path d="M135.3 176.8l32.1-43 20 26.9 13.4-14.4 26.5 30.5h-92zM195.8 128.5a7.3 7.3 0 11-7.3-7.3 7.3 7.3 0 017.3 7.3z" class="d"/><path d="M236.8 240.6l-.2-155.3.2.2H124.7l.2-.2v155.2l-.2-.1 112.1.1-112 .2h-.2v-.2V85.2H237v154.6c0 .5-.2.8-.2.8z" class="i"/><path d="M184.1 259.8l2.5-8.3c.4-1.8 1-4 1.8-6.4a17 17 0 014-6.1c2.6-2.6 3.8-2.6 5.5-4l.5-.4a2.8 2.8 0 00.8-.7c1.5-1.6 0-4-3-3.8-2.2.2-5.8.8-11.8 7l-.2.3c-3.1 4-6-7.6-6.6-11.9a4.5 4.5 0 00-6-3.5l-14.6 6.8a6.7 6.7 0 00-4.2.1 4.3 4.3 0 00-2.8 5.1l5.9 23.5-17.3 57.4h37.2z" class="k"/><path d="M212.7 207l-11.5 22.6-5.8-1.6-28.9 23.5a5.8 5.8 0 01-8.1-.7l-11-12.8s22.2-9.6 26.3-17.5-.7-9.7-.7-9.7l10.4-12zM197.8 161s-16.9-3.7-40.6-26.5-34.8-53-37.7-53S104 75.9 80 128.3s-14.6 64.6-9.8 64.6 37.3-9.2 57.7-6.9 46.4 12.9 46.4 12.9z" class="f"/><path d="M233.5 189.5l-5.7 11-2.6 4.9a14.2 14.2 0 01-18.6 6.3l-36-12.6 21-48 36 19.2a14.3 14.3 0 015.9 19.2z" class="f"/><g class="l"><path d="M233.5 189.5l-5.7 11-2.6 4.9a14.2 14.2 0 01-18.6 6.3l-36-12.6 21-48 36 19.2a14.3 14.3 0 015.9 19.2z" class="m"/></g><path d="M81.9 129.2C69 157.6 63.7 182.9 70 185.7s21.6-18 34.4-46.3 18.2-53.6 12-56.5-21.7 18-34.5 46.3z" class="f"/><g class="n"><path d="M81.9 130.6C69 159 63.7 184.3 70 187.1s21.7-17.9 34.5-46.3 18.1-53.6 11.9-56.5-21.7 18-34.5 46.3z" class="m"/></g><path d="M236.6 205.3l-9.8-3 6-11.5 7.4 4.5-3.6 10z" class="f"/><path d="M232.9 190.8l-6 11.5 2 .6 4.8-11.6-.8-.5z" opacity=".6"/><path d="M226 193.5c-.1.4-5-1.6-10.8-4.4s-10.5-5.2-10.3-5.5 5 1.7 10.8 4.4 10.5 5.2 10.3 5.5zM229.1 186.8c-.1.3-4.5-1.7-9.8-4.4s-9.4-5-9.2-5.4 4.5 1.6 9.8 4.3 9.4 5.1 9.2 5.5zM222.3 200.6c0 .2-1.2-.1-3-.7l-3.3-1c-1.3-.4-2.4-1.1-3.8-1.7-5.3-2.5-9.4-5-9.3-5.2s4.6 1.6 9.9 4l3.7 1.8 3 1.3c1.8.8 2.9 1.3 2.8 1.5zM108 122.9s-14.6-9-22.6 10.7 7.4 23 7.4 23a131.7 131.7 0 0015.2-33.7z" class="f"/><path d="M123.5 99.3a23.6 23.6 0 01-.5 3.8l-2 10.2-2 7-1.2 3.8-.6 2-.7 2-3.3 8.5-1 2.3-1 2.2-2 4.5-2.3 4.5-1 2.1-1.3 2-4.7 8-1 1.8-1.4 1.8-2.3 3.2-4.2 6-6.8 7.9a23.6 23.6 0 01-2.6 2.7 21.2 21.2 0 012.3-3l6.4-8.2 4-6 2.3-3.2 1.2-1.8 1-1.8 4.6-7.9 1.2-2 1.1-2.2 2.2-4.5 2.1-4.4c.4-.7.8-1.4 1-2.2l.9-2.2 3.4-8.4.7-2 .7-2 1.1-3.9 2.2-6.8 2.4-10.1a21.7 21.7 0 011.1-3.7zM150.9 236.4a28.5 28.5 0 004.7 6.8 9.7 9.7 0 007.4 3c2.8-.2 5.4-2.5 5.4-5.3a3.4 3.4 0 004.4-.8 7.7 7.7 0 001.6-4.6 4.3 4.3 0 005.5-1.5 7 7 0 00.7-6 21 21 0 00-2.9-5.5 7.6 7.6 0 004-.4c1.3-.6 2.2-2.3 1.4-3.5a3.4 3.4 0 00-2-1.2c-2.1-.7-3.6-1.3-5.9-1-.5 0 .9 6-13.2 14a117 117 0 01-11.1 6z"/><path d="M182.7 245h-2.4a14 14 0 00-10.4 5c-1 1-1.5 2-1.5 2a2 2 0 01.3-.7 11 11 0 011-1.5 13.2 13.2 0 0110.5-5.1 11.9 11.9 0 011.9.2c.4 0 .7 0 .6.1z" class="p"/><path d="M151.8 232.6c2.3 2.2 3.9 4.7 6.2 6.9 1.1 1 2.8 2.9 4.3 3.1s2.4 0 3-1.3c.4-1-.4-2.6-1-3.5l-4.1-6.1c-.6-.9.1-1 .4-.7 1 1.2 2.7 2.2 3.7 3.4 1.3 1.7 1.6 4 5 3.2a3.2 3.2 0 001.4-.5 3.5 3.5 0 00.8-4.2 11.4 11.4 0 00-2-3c1.5 1.7 3.1 3.5 5.5 3.7a3.3 3.3 0 003.4-1.8c.7-1.6-.3-3.2-1.4-4.4a45.4 45.4 0 00-6-6.2 4.5 4.5 0 00-2.9-1c-1.2 0-2.7.2-3.5 1.3a4.8 4.8 0 00-1 3.6s-3-1.5-5.6.1a7.9 7.9 0 00-3 4.5z" class="k"/><path d="M168.3 219.5a3.7 3.7 0 01-.5-4.2c.5-1 1.2-2 1.9-2.2 3-1 15.8 1.2 15.6 4s-1 4.3-8 3.3l-3.1-.5-1.7 2.6z" class="k"/><path d="M170.6 231.5a23.1 23.1 0 00-3.1-3.8 23.6 23.6 0 00-4-2.7 4 4 0 011.4.5 12 12 0 012.8 2 12.5 12.5 0 012.3 2.7 4 4 0 01.6 1.3zM172.7 222.7l-2-1.3a13 13 0 00-1.6-.9l-.6-.3h.7a6.8 6.8 0 011.6.8 5 5 0 012 1.7zM174.9 220a5.6 5.6 0 01-2.5-.2 4.6 4.6 0 01-1.6-.9l-.5-.5a10.7 10.7 0 002.2 1 18.3 18.3 0 012.4.6zM162.4 235a8.8 8.8 0 01-1.2-1.5 13.8 13.8 0 00-3-3.4 6 6 0 00-4.2-1.2 7.8 7.8 0 00-1.8.6 1.2 1.2 0 01.4-.3 4 4 0 011.4-.5 6 6 0 014.4 1 12 12 0 013 3.6 11.7 11.7 0 011 1.7zM172.2 263.4a38.8 38.8 0 01-5.2.8 39.7 39.7 0 01-5.3.3 38.2 38.2 0 015.2-.7 39.8 39.8 0 015.3-.4z" class="p"/><path d="M282.6 30l.8 1.5 1.5.8-1.5.8-.8 1.5-.7-1.5-1.5-.8 1.5-.8.8-1.4zM299.2 66l.8 1.4 1.4.8-1.4.8-.8 1.5-.8-1.5-1.4-.8 1.4-.8.8-1.4zM34 161.8l.8 1.4 1.4.8-1.4.8-.8 1.4-.8-1.4-1.5-.8 1.5-.8.8-1.4zM261 39l1.8 3.4 3.3 1.8-3.3 1.8-1.9 3.4-1.8-3.4-3.3-1.8 3.3-1.9L261 39zM48.8 139l1.8 3.3 3.4 1.9-3.4 1.8-1.8 3.3L47 146l-3.3-1.8 3.3-1.9 1.8-3.3zM303.7 218.6l1.8 3.3 3.4 1.9-3.4 1.8-1.8 3.3-1.8-3.3-3.4-1.8 3.4-1.9 1.8-3.3z" class="f"/></svg>