<svg xmlns="http://www.w3.org/2000/svg" width="60" height="60" viewBox="0 0 479.999 479.999">
  <path style="fill:#ff2424;" d="M399.652 211.652c-9.977-9.01-15.472-20.97-15.474-33.678-.003-12.716 5.494-24.686 15.467-33.699 19.555-17.627 19.994-30.869 16.918-38.875-2.916-7.591-11.312-16.64-34.748-16.64-1.634 0-3.341.045-5.063.134-13.817.702-26.591-4.215-35.577-13.662-8.473-8.909-12.779-20.984-12.128-33.983.831-16.001-2.102-27.648-8.719-34.618C316.21 2.293 310.887 0 304.934 0c-9.77 0-20.277 6.154-31.23 18.291-9.02 9.989-20.988 15.49-33.704 15.49s-24.685-5.501-33.702-15.489C195.341 6.154 184.835 0 175.069 0c-5.949 0-11.271 2.292-15.388 6.626-6.618 6.968-9.556 18.615-8.732 34.605.653 13.02-3.654 25.096-12.129 34.005-8.418 8.851-20.123 13.725-32.959 13.725h-.005c-.864 0-1.743-.022-2.601-.065-1.732-.09-3.439-.135-5.073-.135-23.434 0-31.829 9.049-34.746 16.641-3.075 8.006-2.638 21.249 16.906 38.865 9.982 9.021 15.479 20.992 15.477 33.708-.002 12.708-5.497 24.668-15.47 33.674-19.555 17.64-19.99 30.888-16.912 38.896 2.917 7.588 11.308 16.634 34.714 16.634 1.646 0 3.363-.046 5.099-.136 11.571-.595 22.418 2.78 30.921 9.454l-61.907 145.91c-1.361 3.21-.953 6.897 1.077 9.73 2.031 2.835 5.403 4.401 8.867 4.148l56.259-4.165 28.927 43.423c1.866 2.801 4.999 4.456 8.32 4.456.339 0 .681-.018 1.024-.053 3.69-.378 6.867-2.769 8.254-6.21l54.668-135.668 60.318 135.985c1.479 3.334 4.655 5.599 8.289 5.909.285.024.57.036.854.036 3.323 0 6.454-1.657 8.318-4.453l28.95-43.426 56.23 4.165c3.482.261 6.877-1.335 8.903-4.199 2.025-2.865 2.401-6.582.991-9.795L347.827 275c7.491-5.215 16.566-8.024 26.293-8.024.868 0 1.753.022 2.618.066 1.744.091 3.461.137 5.102.137h.007c23.405-.001 31.795-9.048 34.712-16.637 3.076-8.008 2.643-21.256-16.907-38.89zM173.526 448.677l-21.652-32.504c-2-3.003-5.479-4.696-9.061-4.429l-45.736 3.387 50.871-119.896c2.298 6.012 3.346 12.603 3.002 19.458-.825 15.996 2.113 27.64 8.731 34.607 4.118 4.334 9.439 6.625 15.389 6.625h.004c9.77-.002 20.274-6.158 31.221-18.294 4.87-5.394 10.604-9.465 16.847-12.082l-49.616 123.128zm213.991-33.565l-45.473-3.368c-3.591-.265-7.059 1.424-9.059 4.426l-22.1 33.151-55.095-124.212c6.657 2.59 12.765 6.82 17.909 12.518 10.952 12.142 21.46 18.298 31.231 18.297 5.954 0 11.278-2.294 15.398-6.633 6.617-6.971 9.552-18.613 8.721-34.586-.408-8.127 1.119-15.887 4.386-22.74l54.082 123.147zm10.372-171.745c-.291.756-4.059 3.811-16.044 3.811-1.298 0-2.666-.036-4.078-.11-1.214-.062-2.44-.093-3.647-.093-18.357 0-35.201 7.081-47.431 19.94-12.29 12.921-18.546 30.25-17.614 48.811.596 11.455-1.38 17.823-3.252 19.796-.345.363-.486.402-.893.402-.597 0-6.128-.328-16.382-11.696-12.86-14.243-30.102-22.088-48.549-22.088s-35.688 7.845-48.552 22.091c-10.25 11.364-15.78 11.693-16.377 11.693-.405 0-.545-.039-.889-.4-1.872-1.971-3.849-8.34-3.258-19.816.931-18.541-5.325-35.869-17.616-48.791-13.033-13.704-31.26-20.852-51.087-19.848-1.4.072-2.77.109-4.069.109-11.986 0-15.755-3.054-16.045-3.81-.361-.938.576-6.891 11.644-16.873 14.229-12.85 22.066-30.081 22.069-48.519.004-18.444-7.833-35.686-22.076-48.558-11.058-9.967-11.997-15.909-11.637-16.846.29-.757 4.064-3.814 16.076-3.814 1.291 0 2.651.036 4.053.108 1.202.061 2.42.092 3.619.092h.007c18.367-.001 35.221-7.082 47.451-19.94 12.287-12.918 18.542-30.246 17.61-48.805-.59-11.472 1.387-17.844 3.26-19.815.342-.36.482-.4.887-.4.597 0 6.124.328 16.381 11.693 12.86 14.243 30.102 22.088 48.549 22.088s35.688-7.845 48.55-22.089C298.804 20.328 304.335 20 304.934 20c.407 0 .548.04.892.401 1.871 1.972 3.846 8.343 3.249 19.828-.931 18.542 5.324 35.868 17.61 48.786 12.233 12.862 29.087 19.945 47.458 19.945 1.198 0 2.416-.031 3.631-.093 1.391-.071 2.751-.108 4.042-.108 12.014 0 15.788 3.056 16.079 3.813.359.937-.581 6.878-11.649 16.855-14.233 12.862-22.07 30.105-22.066 48.549.003 18.438 7.841 35.669 22.073 48.523 11.061 9.978 11.996 15.93 11.636 16.868z"/>
  <path style="fill:#ff2424;" d="M240.582 88.649c-52.742 0-95.65 42.9-95.65 95.633 0 52.738 42.908 95.644 95.65 95.644 52.734 0 95.637-42.905 95.637-95.644.001-52.732-42.902-95.633-95.637-95.633zm0 171.277c-41.714 0-75.65-33.934-75.65-75.644 0-41.704 33.936-75.633 75.65-75.633 41.706 0 75.637 33.929 75.637 75.633.001 41.71-33.931 75.644-75.637 75.644z"/>
  <path style="fill:#ff2424;" d="M244.48 133.235c-1.32-.138-13.278-1.188-26.266 4.285-12.493 5.266-28.061 17.508-31.277 45.929-.621 5.488 3.324 10.44 8.811 11.061.383.043.762.064 1.138.064 5.019 0 9.346-3.77 9.924-8.876 3.895-34.408 32.361-32.862 35.648-32.566 5.477.54 10.358-3.439 10.93-8.913.574-5.492-3.415-10.41-8.908-10.984z"/>
</svg>
