<svg xmlns="http://www.w3.org/2000/svg" width="1440" height="560" preserveAspectRatio="none">
  <g fill="none" mask="url(&quot;#a&quot;)">
    <path fill="rgba(38, 38, 75, 1)" d="M0 0h1440v560H0z"/>
    <path stroke="#132e65" stroke-width="1.5" d="m-68 492 118 7m-118-7 156-87m-156 87 7 211m0 0 131-38m-131 38L50 499M-61 703l274-39M88 405l-38 94m38-94 154-56M50 499l20 166M50 499l176 55M70 665l143-1m-143 1 156-111M70 665-68 492M70 665l18-260m154-56 136 28m-136-28 130 142m-146 63-13 110m13-110 146-63m-146 63 113 127M226 554 88 405m290-28-6 114m6-114L226 554m152-177 173 180M378 377 88 405m290-28 292-27M372 491l179 66m-179-66-33 190m33-190 139 189m-172 1-126-17m126 17 172-1m40-123-40 123m40-123 152-25m-152 25 119-207M551 557 339 681m172-1 192-148M511 680l-298-16m298 16L226 554m444-204 33 182m-33-182 129 161M670 350l188-162M703 532l96-21m-96 21 126 109m29-453 127 66m-127-66 142-89m-142 89 110 166M799 511l30 130m-30-130 151 21m-151-21 180 143M799 511l169-157M829 641l150 13m5-752 110 38M984-98l16 197M984-98l131 206M984-98l263 20M984-98 858 188M984-98l127 315M1000 99l115 9m-115-9-15 155m15-155 111 118M1000 99l94-159M985 254l-17 100m17-100 126-37m-126 37 142 124m-159-24 159 24m-159-24-18 178m18-178 143-137M950 532l29 122m0 0 163 9m-163-9-11-300m11 300L703 532m391-592 153-18m-153 18 21 168m0 0-4 109m0 0 145 29m-145-29 16 161m0 0 129-132m-114 417 153 44m-153-44 154-135m-154 135L950 532m192 131-15-285m15 285 262-140M1247-78l175-16m-175 16 50 171m-50-171-132 186m132-186 150 175m-100-4 100 4m-100-4-41 153m0 0 192-43m-192 43-141-138m181 420 108-5m-108 5-1 179m1-179 138-138m-138 138-169-150m169 150 149 178m-150 1 150-1m-150 1 109-184m-109 184 252-173m-252 173 303-50M1422-94l131 27m-131-27-25 191m25-191L1297 93m125-187 171 198M1422-94l26 297m-51-106 51 106m0 0 92 51m-106 136-30 133m30-133 143 3m-173 130 143 11m-143-11 41 183m0 0 153-49m-153 49 102-172m-102 172-303-43m411-730 40 171m-40-171L1397 97m156-164-105 270m145-99-53 150m53-150-145 99m92 51 37 139m0 0-30 141m30-141-173 130m143 11 51 123m0 0-194-134m194 134-21-264m21 264-164-267"/>
    <circle cx="-68" cy="491.6" r="5" fill="#132e65"/>
    <circle cx="-61.1" cy="702.6" r="5" fill="#132e65"/>
    <circle cx="88.1" cy="405.1" r="5" fill="#132e65"/>
    <circle cx="49.6" cy="499.1" r="5" fill="#132e65"/>
    <circle cx="69.8" cy="664.8" r="5" fill="#132e65"/>
    <circle cx="241.8" cy="349.2" r="5" fill="#132e65"/>
    <circle cx="226.3" cy="554.1" r="5" fill="#132e65"/>
    <circle cx="212.9" cy="664.1" r="5" fill="#132e65"/>
    <circle cx="378.5" cy="377" r="5" fill="#132e65"/>
    <circle cx="372.3" cy="490.8" r="5" fill="#132e65"/>
    <circle cx="339.1" cy="681.1" r="5" fill="#132e65"/>
    <circle cx="551.4" cy="556.9" r="5" fill="#132e65"/>
    <circle cx="511.5" cy="680" r="5" fill="#132e65"/>
    <circle cx="670.5" cy="349.9" r="5" fill="#132e65"/>
    <circle cx="703.2" cy="531.5" r="5" fill="#132e65"/>
    <circle cx="858.2" cy="188.4" r="5" fill="#132e65"/>
    <circle cx="798.8" cy="510.8" r="5" fill="#132e65"/>
    <circle cx="829.4" cy="640.7" r="5" fill="#132e65"/>
    <circle cx="983.9" cy="-97.9" r="5" fill="#132e65"/>
    <circle cx="1000" cy="98.5" r="5" fill="#132e65"/>
    <circle cx="985.2" cy="253.8" r="5" fill="#132e65"/>
    <circle cx="967.7" cy="354.1" r="5" fill="#132e65"/>
    <circle cx="949.9" cy="532.1" r="5" fill="#132e65"/>
    <circle cx="979.1" cy="653.6" r="5" fill="#132e65"/>
    <circle cx="1094.1" cy="-59.9" r="5" fill="#132e65"/>
    <circle cx="1114.8" cy="107.7" r="5" fill="#132e65"/>
    <circle cx="1111.1" cy="217.5" r="5" fill="#132e65"/>
    <circle cx="1127.1" cy="378.4" r="5" fill="#132e65"/>
    <circle cx="1142.3" cy="663.1" r="5" fill="#132e65"/>
    <circle cx="1247" cy="-78" r="5" fill="#132e65"/>
    <circle cx="1297.1" cy="93.2" r="5" fill="#132e65"/>
    <circle cx="1256.2" cy="246.3" r="5" fill="#132e65"/>
    <circle cx="1296" cy="528.3" r="5" fill="#132e65"/>
    <circle cx="1294.6" cy="707.1" r="5" fill="#132e65"/>
    <circle cx="1422.3" cy="-93.7" r="5" fill="#132e65"/>
    <circle cx="1397.2" cy="96.8" r="5" fill="#132e65"/>
    <circle cx="1447.8" cy="203.4" r="5" fill="#132e65"/>
    <circle cx="1433.9" cy="389.8" r="5" fill="#132e65"/>
    <circle cx="1403.7" cy="522.9" r="5" fill="#132e65"/>
    <circle cx="1444.9" cy="705.7" r="5" fill="#132e65"/>
    <circle cx="1553.5" cy="-67.3" r="5" fill="#132e65"/>
    <circle cx="1593.1" cy="104.3" r="5" fill="#132e65"/>
    <circle cx="1539.6" cy="253.8" r="5" fill="#132e65"/>
    <circle cx="1577.1" cy="392.6" r="5" fill="#132e65"/>
    <circle cx="1547" cy="534.5" r="5" fill="#132e65"/>
    <circle cx="1597.7" cy="657.1" r="5" fill="#132e65"/>
    <path stroke="hsl(228.70000000000005, 71.6%, 37.7%)" stroke-width="1.5" d="m64 510-131 28m131-28 160 8m-160-8-4 176m4-176 167 161M64 510-95 697M64 510l280-7M60 686l-155 11m155-11 171-15M60 686-67 538M60 686l164-168M60 686l282-4m905 8-98-18m98 18 182-2m-182 2-5-195m5 195 143-164m-143 164-143-169m325 167-39-162m39 162 153-144m-25-477-99-26m99 26 35-158m-35 158 48 168m-26 148-129-40m129 40 26-148m-26 148 3 161m-3-161-132-171M-67 538l-28 159m28-159 291-20m-291 20 298 133M-67 538l411-35m-120 15 120-15m-120 15 7 153m-7-153 118 164m-111-11 111 11m-111-11 113-168m0 0-2 179m2-179 196 29m-196-29 172 144m-174 35 174-35m24-115-24 115m24-115 172 10m-172-10 136 126M540 532 342 682m198-150 295 14M516 647l160 11m-160-11 196-105m0 0-36 116m36-116 123 4m-123-4 98-135m0 0 25 139m-25-139 133 83m-133-83 148-69m-148 69L676 658m134-251L540 532m295 14 108-56m-108 56L676 658m159-112 162 138M835 546l123-208m0 0-15 152m15-152 170 44m-170-44 167-99m-167 99 146 183m-161-31 161 31m-161-31 54 194m-54-194 185-108M997 684l152-12m-152 12 107-163M997 684l250 6m-250-6 245-189m-84-456 127 67m-127-67 139-146M1158 39l-33 200m33-200 102 209M1158 39l261-111m-294 311 135 9m-132 134-24 139m24-139-3-143m-21 282 138-26m-138 26 45 151m148-779 122 35m-122-35-12 213m12-213 161 148m-161-148 295 16m-295-16 260 174m-272 39-25 142m25-142 173-65m-198 207 29 98m-29-98-132 134m132-134 187-36m-187 36 190 95m-161 3-47 149m47-149 161-3m-161 3-161 36m161-36-164-107m164 107 101 180m-148-31 148 31m-148-31-114-113m291-454 39 113m-39-113 173-19m-173 19 138 139M1419-72l-134 178m173-65-11 171m11-171 134-132m-145 303 3 131m-3-131 158 23m-158-23 110-145m-110 145-162-106m165 237 155-108m-215 291 60-183m-60 183 192 18m0 0"/>
    <circle cx="63.6" cy="510" r="25" fill="url(&quot;#b&quot;)"/>
    <circle cx="60.2" cy="686.1" r="25" fill="url(&quot;#b&quot;)"/>
    <circle cx="1247.2" cy="689.5" r="25" fill="url(&quot;#b&quot;)"/>
    <circle cx="1429.2" cy="687.6" r="25" fill="url(&quot;#b&quot;)"/>
    <circle cx="1557.3" cy="66.8" r="25" fill="url(&quot;#b&quot;)"/>
    <circle cx="1578.9" cy="383.1" r="25" fill="url(&quot;#b&quot;)"/>
    <circle cx="-67.2" cy="538.4" r="5" fill="#8a94bf"/>
    <circle cx="-94.9" cy="696.6" r="5" fill="#8a94bf"/>
    <circle cx="223.7" cy="517.9" r="5" fill="#8a94bf"/>
    <circle cx="231.4" cy="670.8" r="5" fill="#8a94bf"/>
    <circle cx="343.7" cy="502.6" r="5" fill="#8a94bf"/>
    <circle cx="341.5" cy="682.4" r="5" fill="#8a94bf"/>
    <circle cx="540.3" cy="531.8" r="5" fill="#8a94bf"/>
    <circle cx="515.6" cy="647.5" r="5" fill="#8a94bf"/>
    <circle cx="711.9" cy="542.3" r="5" fill="#8a94bf"/>
    <circle cx="676" cy="657.7" r="5" fill="#8a94bf"/>
    <circle cx="809.9" cy="406.8" r="5" fill="#8a94bf"/>
    <circle cx="835.1" cy="546.2" r="5" fill="#8a94bf"/>
    <circle cx="957.6" cy="337.5" r="5" fill="#8a94bf"/>
    <circle cx="943.3" cy="489.7" r="5" fill="#8a94bf"/>
    <circle cx="996.9" cy="684.3" r="5" fill="#8a94bf"/>
    <circle cx="1157.9" cy="39.2" r="5" fill="#8a94bf"/>
    <circle cx="1124.6" cy="239" r="5" fill="#8a94bf"/>
    <circle cx="1127.8" cy="382.3" r="5" fill="#8a94bf"/>
    <circle cx="1104.3" cy="520.6" r="5" fill="#8a94bf"/>
    <circle cx="1148.8" cy="672.1" r="5" fill="#8a94bf"/>
    <circle cx="1297.4" cy="-106.9" r="5" fill="#8a94bf"/>
    <circle cx="1284.9" cy="105.9" r="5" fill="#8a94bf"/>
    <circle cx="1259.6" cy="248.2" r="5" fill="#8a94bf"/>
    <circle cx="1288.5" cy="346.1" r="5" fill="#8a94bf"/>
    <circle cx="1241.5" cy="494.6" r="5" fill="#8a94bf"/>
    <circle cx="1418.5" cy="-72.3" r="5" fill="#8a94bf"/>
    <circle cx="1458" cy="41.2" r="5" fill="#8a94bf"/>
    <circle cx="1447" cy="211.6" r="5" fill="#8a94bf"/>
    <circle cx="1450.3" cy="343" r="5" fill="#8a94bf"/>
    <circle cx="1390.1" cy="525.6" r="5" fill="#8a94bf"/>
    <circle cx="1591.8" cy="-90.5" r="5" fill="#8a94bf"/>
    <circle cx="1604.8" cy="234.6" r="5" fill="#8a94bf"/>
    <circle cx="1581.9" cy="544.5" r="5" fill="#8a94bf"/>
  </g>
  <defs>
    <radialGradient id="b">
      <stop offset=".1" stop-color="#fff"/>
      <stop offset=".2" stop-color="rgba(21, 41, 127, 1)"/>
      <stop offset="1" stop-color="rgba(21, 41, 127, 0)"/>
    </radialGradient>
    <mask id="a">
      <path fill="#fff" d="M0 0h1440v560H0z"/>
    </mask>
  </defs>
</svg>
