<svg xmlns="http://www.w3.org/2000/svg" width="64" height="64" id="Layer_1" version="1.1" viewBox="0 0 50 50" xml:space="preserve"><style>.st0{fill:#b7c5fd}.st7{fill:#6bb5fb}.st11{fill:#384e85}</style><circle cx="26.4" cy="25" r="18" fill="#4466fb"/><path d="M36 10v1h-3l1-1h-1v1l-1 1-1 1h-1v1h1v1h-2v2h2l1-1v-1h1l1 1v1l1-1h-1v-1-1 1h1v1s1 0 0 0l1 1v-1h1v-1l1-1 1 1v-1h1v2h-1-1-1v1l1 1c0-1 0-1 0 0h1v1h-3-1c0 1 0 1 0 0h-1l-1-1v-1h-1-1l-1 1h-1v1l-1 1-1 1v4l1 1 1 1h4v1 7l1 1v3h2l1-2h1v-1-1l1-1v-2-1l1-2 1-1 1-2h-1-1v-1-1l-1-1v-1-1l-1-1 1 2 1 1v2h1l1-1h1l1-1v-1h-1-1v-1-1c-1 0-1 0 0 0l1 1h1c-1-4-4-8-8-11zM9 27h2v1l1-1v4l2 1h1v1l1 1v1l1 1v1h1v2c1 0 1 0 0 0l1 1h1s1 0 0 0h0l-1-1 1-1h-1v-1-1-1h1v-1-1-1-1c1 0 1 0 0 0v-2h0l-1-1h-1-1v-1h-1-1-1-1v-1l-1 1h-1l-1-1H9l1-1H9v1H8h1v1z" class="st7"/><path d="M36 10c3 3 5 7 5 12a18 18 0 01-28 15 18 18 0 0031-12c0-6-3-12-8-15z" class="st11" opacity=".3"/><path d="M8 23h2l1 1-1-1 1-1v-1l1-1 1-1v1l1-1h-1v-1h-1 2l1-1a8832 8832 0 012-1v-2h1v-1h2l1-1v-1h1c-1 0 0 0 0 0l-1-1 2-1h-2 1l-1-1h-1l-2 1A18 18 0 008 23z" class="st7"/><path d="M43 19l1 1c5 2 4 6-3 8-9 2-23 2-32 0-8-3-8-7 0-9h1v-1H8c-10 3-10 7 0 10 9 3 25 3 34 0 10-2 10-7 1-9z" class="st0"/><path d="M41 36h-1c2 4-2 5-8 2-8-4-18-13-23-21s-2-11 6-7h1l-2-1C6 4 3 8 8 16c5 9 16 19 25 24 8 4 11 1 8-5v1z" class="st0"/><path d="M27 6l-1 1h2c6-5 10-2 10 7s-5 22-11 28-11 4-11-3l-2-1c0 10 6 13 12 6 7-7 13-21 13-32 0-10-5-13-12-6z" class="st0"/><path d="M41 15l1 1c5 0 6 3 0 8-7 5-19 11-28 12-8 1-10-2-5-7v-1c-7 6-6 10 4 9 9-2 23-8 30-14 7-5 6-9-2-8z" class="st0"/><circle cx="18.1" cy="35.6" r="1.1" class="st11"/><circle cx="5" cy="27" r="1.6" class="st11"/><circle cx="13" cy="8.8" r="1.1" class="st11"/><g><circle cx="38.4" cy="13.4" r="1.6" class="st11"/></g><g><circle cx="34.7" cy="29.3" r="1.1" class="st11"/></g><g><circle cx="47.5" cy="25" r="1.6" class="st11"/></g><g><circle cx="23.8" cy="45.3" r="1.6" class="st11"/></g></svg>