<svg xmlns="http://www.w3.org/2000/svg" width="350" height="350" id="Layer_1" version="1.1" viewBox="0 0 512 512" xml:space="preserve"><style>.st1{fill:#2d548d}.st3{opacity:.2;fill:#eeedf3}.st6{opacity:.1;fill:#3f3f3f}.st8{fill:#fff}.st9{fill:#e2e1e1}.st10{fill:#e83c3b}.st13{fill:#ee9f05}.st15{fill:#edb7d5}.st19{fill:#d7dde9}.st20{fill:#ed9558}.st21{fill:#ed8c61}.st22{fill:#f6ad86}.st23{fill:#e8e8e8}.st24{fill:#3a63a9}.st25{fill:#658bc1}</style><linearGradient id="SVGID_1_" x1="479.2" x2="-28.1" y1="461.4" y2="-4.7" gradientUnits="userSpaceOnUse"><stop offset="0" stop-color="#6fc7da"/><stop offset=".4" stop-color="#0d71b9"/><stop offset=".8" stop-color="#9e1460"/><stop offset="1" stop-color="#e7267a"/></linearGradient><path fill="url(#SVGID_1_)" d="M192 101c-10 4-49 21-71 62-4 9-26 51-10 88 21 49 85 37 115 83 25 39-27 78-5 125 12 24 39 45 64 47 79 6 220-163 163-296-42-97-175-142-256-109z"/><path d="M352 177l-145-54c-4-1-9 1-11 6L99 391c-2 5 0 9 5 11l144 54c5 1 10-1 11-5l98-263c1-4-1-9-5-11z" class="st1"/><path fill="#aaaad5" d="M265 312l-11-1c-56-3-102-28-122-66-33-62-1-148 48-175 25-14 47-14 61-11 24 5 41 16 49 31 9 16 4 31-1 47-4 14-9 29-3 45 4 14 17 18 30 23 14 5 28 10 35 25 8 16 7 39-2 52-12 18-45 30-84 30zM225 59c-12 0-27 2-44 12-49 26-81 112-48 173 20 38 66 63 121 66 43 3 81-9 94-28 9-13 10-35 2-51-7-15-21-20-34-25-14-5-26-9-31-24-6-16-1-31 3-46 5-15 9-30 1-46-8-15-25-25-48-30l-16-1zm-44 11z" opacity=".1"/><path d="M317 164l-16 11-140 94-22 15 30-83 23-14 50-34 16-11zM349 176l-16 11-188 126-23 15 11-29 22-15 157-105 16-11z" class="st3"/><path fill="#eeedf3" d="M352 177l-4-1-20-8-11-4-59-22-51-18c-4-2-9 0-11 5l-27 73-30 82-6 15-11 29-23 63-1 3c0 3 2 7 6 8l27 10 20 8 53 19 20 8 24 9c5 1 9-1 11-5l96-258 2-5c1-4-1-9-5-11zm-14 16l-2 6-82 222c-1 3-4 4-6 3l-19-7-21-8-46-17-20-7-17-6c-2-1-3-3-3-5l1-1 22-60 10-29 6-15 31-82 15-42c1-2 4-4 6-3l29 11 59 22 11 4 21 8 2 1c3 1 4 3 3 5z"/><path fill="#c9c7d9" d="M172 418c-4-1-6-6-5-10 2-4 6-6 11-5 4 2 6 6 4 10-1 5-6 7-10 5z"/><path d="M269 22L67 89c-5 2-8 7-6 12l20 59c1 5 7 7 11 6l20-7 10-3 11 7c2 1 5 0 7-2l4-13 49-16 101-33c5-2 8-7 6-12l-20-59c-1-5-6-7-11-6z" class="st6"/><linearGradient id="SVGID_2_" x1="537.7" x2="378.8" y1="190.9" y2="-87.6" gradientTransform="rotate(-14 359 1325)" gradientUnits="userSpaceOnUse"><stop offset="0" stop-color="#6fc7da"/><stop offset="1" stop-color="#9e1460"/></linearGradient><path fill="url(#SVGID_2_)" d="M269 7L52 78c-5 2-8 8-6 13l21 63c2 5 7 8 12 6l22-7 10-3 12 8c3 1 6 0 7-3l5-13 53-17 108-36c5-2 8-8 6-13l-21-63c-1-5-7-8-12-6z"/><path d="M107 108c2-3 2-6 1-9l-2-5c-2-6-8-9-13-8-6 2-10 9-8 14l2 6c1 3 3 5 6 7-6 4-10 12-9 20 0 3 3 5 6 4l34-11c3-1 4-5 2-7-4-7-11-11-19-11zM188 55l-43 14c-3 1-5 5-4 8l7 21c1 4 5 6 9 5l4-2 10 7c2 1 5 1 6-2l4-12 19-6c3-1 5-5 4-8l-7-21c-1-4-5-6-9-4z" class="st8"/><path d="M153 79c-2 0-3-1-3-2-1-2 0-3 1-4l35-11c2-1 3 0 4 1 0 2 0 4-2 4l-35 12zM156 88c-2 0-3-1-3-2-1-1 0-3 1-3l35-12c2-1 3 0 4 2 0 1 0 3-2 3l-35 12zM159 97c-1 0-3 0-3-2-1-1 0-3 1-3l16-6 4 2-2 4-16 5z" class="st9"/><path d="M278 65c-1-5-4-8-7-11l-2-4c-3-8-10-13-18-11v-2l-4-2-2 4 1 1c-7 4-11 12-8 20l1 5v12l1 2c0 1 1 2 2 1l8-2 1 1a16 16 0 0019-6v-2l8-2 1-3-1-1z" class="st8"/><path d="M245 77c2 5-1 10-5 11-5 2-10-1-11-5-2-5 1-10 5-11 5-2 10 1 11 5z" class="st10"/><g><path d="M486 192l-55-7c-3 0-5 2-5 4l-7 56c0 2 2 4 4 4l56 7c2 0 4-1 4-4l7-55c0-2-1-5-4-5z" class="st6"/><path fill="#f8aa09" d="M493 248l-65-8-2-2 8-64 2-2 65 8 2 2-8 65-2 1z"/><path fill="#fbba38" d="M433 233l7-53 1-1 54 6 1 2-7 53-1 1-54-6-1-2z"/><path d="M466 215l-6 4h-8l-9 7c-2 1-1 4 1 5h2l21 2 12 2c2 0 4-3 3-5l-12-15h-4zM455 204c-1 3-3 4-5 4-3 0-5-2-4-5 0-2 2-4 5-4 2 0 4 3 4 5z" class="st13"/></g><g><path d="M137 349c-3-7-10-11-16-8l-82 25c-7 2-10 10-8 16l17 53c2 7 9 11 15 9l8-3 21 14c3 2 8 0 10-4l9-22 34-11c7-2 10-9 8-16l-16-53z" class="st6"/><linearGradient id="SVGID_3_" x1="161.2" x2="36" y1="397.1" y2="383.4" gradientUnits="userSpaceOnUse"><stop offset="0" stop-color="#6fc7da"/><stop offset=".7" stop-color="#9e1460"/><stop offset="1" stop-color="#e7267a"/></linearGradient><path fill="url(#SVGID_3_)" d="M107 329l-88 27c-7 2-11 10-9 17l18 57c2 8 10 11 17 9l9-3 21 15c4 2 10 0 12-4l9-24 37-12c7-2 11-9 9-17l-18-57c-2-7-10-11-17-8z"/><path d="M107 358l-71 23c-2 0-5-1-6-3 0-3 1-5 3-6l71-22c3-1 5 0 6 3 1 2-1 4-3 5zM113 378l-71 23c-2 0-5-1-5-3-1-3 0-5 3-6l71-22c2-1 4 0 5 3 1 2 0 4-3 5zM81 410l-32 10c-3 1-5 0-6-2-1-3 1-5 3-6l32-10c2-1 5 1 6 3 0 2-1 5-3 5z" class="st15"/></g><g><path d="M286 229c-2-5-8-6-11-2l-12 19-6-27c-1-5-6-8-12-7l-72 17c-5 1-9 7-7 12l17 72c1 6 6 9 12 8l72-18c5-1 9-6 7-11l-6-27 18 12c5 2 10-2 9-7l-9-41z" class="st6"/><path fill="#e83b5b" d="M283 208l-12 19-6-28c-2-6-7-9-13-8l-78 19c-5 1-9 7-8 13l19 77c1 6 7 9 13 8l77-18c6-2 9-8 8-13l-7-29 20 13c5 3 11-2 9-7l-10-44c-1-6-9-7-12-2z"/><path d="M211 229l28 17-17 29" class="st8"/></g><g><path d="M223 350h120v68H223z" class="st10" transform="rotate(-9 283 384)"/><path fill="#ee7375" d="M283 384l54-43-118 19z"/></g><g><path fill="#e2e2e1" d="M361 456h67c2 0 4-2 4-4s-2-4-4-4h-67c-2 0-4 2-4 4s2 4 4 4z"/><path d="M383 440l-3-19 9-3 1 21z" class="st19"/><path d="M390 437h2c3 3 13 7 17 8 6 1 6 3-2 3h-26c-6 0-4-8-2-11l3-2 8 2z" class="st20"/><path d="M355 422l12-16 8 5-14 15z" class="st19"/><path d="M362 425l1 1c0 4 3 15 7 18 4 4 1 4-5 2-6-4-8-10-10-13l-8-7c-4-4 3-8 8-9 1-1 2 0 3 1l4 7z" class="st20"/><path d="M349 92s-2 16 3 24l5 8" class="st21"/><path d="M361 131a8 8 0 01-11-3l-5-8c-3-5-4-11-4-17V91a8 8 0 0117 2 49 49 0 000 15l1 3 5 9c2 4 1 9-3 11z" class="st22"/><path d="M330 223c2-24-6-83-10-107-1-4 2-7 6-7h49c3 0 5 2 6 4 5 22 9 110 9 110h-60z" class="st23"/><path d="M412 173l-13-28-17-32c-2-3-6-5-10-3-3 2-4 6-2 10l15 28 12 21c-4 4-13 4-21 4-2-1-10-1-15 4-2 1-4 5-4 10 0 4 0 6 4 8h5c3 0 4-2 4-7l1-6 21 4c10 1 14-1 17-5 2-2 3-5 3-8z" class="st22"/><path d="M333 261s-7-13-3-38h60l-1 38h-56z" class="st24"/><path d="M399 145l-7 1-7 2-15-28a7 7 0 0112-7l17 32z" class="st21"/><path d="M332 115c-1-4-4-6-8-5-17 4-29 8-37 11-19 8-19 14-19 17s1 10 42 25l-2 7c-2 4 0 7 2 10 0 1 2 3 4 3s5-3 6-6l1-16v-1h-1v-1h-1l-1-1-1-1c-14-6-27-15-33-19l8-4 35-11c4-1 6-4 5-8z" class="st22"/><path d="M400 142l-9 2-8 1-6 1c-8-15-10-19-10-24-1-7 1-10 5-12s9-1 11 3c0 1 9 13 17 29z" class="st23"/><path d="M426 340c-1 6-4 12-9 20-7 12-18 27-28 39l-18 20-4 5-8-11 9-16c7-10 15-22 20-33l1-1c6-11 11-21 12-27 1-10-14-42-30-71l-5-9-1-3c0-6 4-12 8-14 6-4 13-5 17 1 6 11 40 75 36 100z" class="st24"/><path d="M389 399l-18 20-2-18-1-4c7-10 15-22 20-33l1 35z" class="st1"/><path d="M387 343c-3-24-23-87-26-94-2-6-17-8-23-5s-8 10-6 16c8 18 31 67 33 84l6 48 7 33 1 7 15-2s-3-59-7-87z" class="st24"/><path d="M327 123c-13 3-26 8-34 11l-6-13c8-3 20-7 37-11 3-1 7 1 8 5s-1 7-5 8z" class="st21"/><path d="M324 109c4 0 8 2 9 6 1 5-2 8-6 10-5 3-6 4-27 11l-11-16c26-10 27-10 35-11z" class="st23"/><path d="M358 109h-1c-7 0-12-2-17-6l1-12a8 8 0 0117 3 49 49 0 000 15z" class="st21"/><path d="M381 79c-3 15-12 26-26 26-15 0-24-11-27-26-2-14 12-29 27-29s29 15 26 29z" class="st22"/><path d="M383 432l-13-86c-2-17-24-68-32-86v-1c-1-3-5-16-1-37h1c-4 21 0 33 1 37h1c8 19 29 70 31 87l13 86h-1z" class="st25"/><path fill="#c8d6db" d="M364 109c0 4-1 10-11 10-6 0-15-3-18-9l-1-1h30z"/><path d="M337 109c2 5 10 7 16 7 7 0 9-3 9-7h-25z" class="st22"/><g><path fill="#82aace" d="M373 183s0-4-4-10l4-2c4 7 4 12 4 13l-4-1z"/><path fill="#4e7db0" d="M370 171c2-1 5 0 6 1 2 2 1 4-1 5-3 1-5 0-7-1-1-2-1-4 2-5z"/></g><path fill="#424344" d="M381 59c-8-13-28-14-32-13-2 0-6 1-8 4v-4c-2 2-2 4-2 5l-2-3 1 4c-5 1-12 9-10 25 1 6 17 1 21-6 3 5 9 6 9 6l-5-8c8 5 19 10 20 14 0 0 2-6 1-9 0 0 6 2 7 8 0 0 8-9 0-23z"/><path d="M364 222h1v41h-1z" class="st25" transform="rotate(-9 364 242)"/><path d="M366 255v-1l4-3 1-4-5-25h2l4 25-1 5-5 3z" class="st25"/><path d="M327 77v8c2 3 6 3 7 0l4-8c1-3-2-6-5-5l-6 5z" class="st22"/></g></svg>