<svg xmlns="http://www.w3.org/2000/svg" width="82.8239" height="48.0446" viewBox="0 0 21.9138 12.7118"><path d="M11.8146 9.4306l3.4746 2.2384-.8954-3.3115z" fill="#dadada"/><path d="M1.2132 9.0682L9.0826 5.794a.7973.7973 0 01.611 0l4.9996 2.0803c.1598.0663.1598.292 0 .3588l-7.8856 3.2804a.792.792 0 01-.6121-.0007L1.2129 9.4266c-.1595-.0667-.1591-.292.0003-.3584" fill="#fff"/><path d="M11.8146 8.564v.8668l2.5792-1.0732-.411-.6957z" fill="#dadada"/><path d="M1.249 9.1547a.0985.0985 0 00-.0617.0927.0976.0976 0 00.0618.0928l4.9822 2.0867a.698.698 0 00.5408.0003l7.8853-3.2804a.0986.0986 0 00.0618-.0932.0982.0982 0 00-.0618-.0927L9.6575 5.8805a.6983.6983 0 00-.539 0zm5.2533 2.5142a.8843.8843 0 01-.3433-.0695L1.1767 9.5131A.283.283 0 011 9.2474c0-.1181.068-.2201.1774-.2656L9.047 5.7077a.8858.8858 0 01.6826 0L14.729 7.788a.2833.2833 0 01.1774.2656.2842.2842 0 01-.1774.266l-7.8853 3.2809a.894.894 0 01-.3415.0684" fill="#41404d"/><path d="M1.2132 8.2018l7.8694-3.2742a.7941.7941 0 01.611 0l4.9996 2.0804c.1598.0663.1598.292 0 .3584l-7.8856 3.2808a.7936.7936 0 01-.6121-.0007L1.2129 8.5602c-.1595-.0667-.1591-.2925.0003-.3584" fill="#fff"/><path d="M11.8146 7.6974l1.7572-.731.411.6957-2.1682.902z" fill="#dadada"/><path d="M1.249 8.288a.0985.0985 0 00-.0617.0928.0976.0976 0 00.0618.0928l4.9822 2.0867a.698.698 0 00.5408.0004l7.8853-3.2805a.0986.0986 0 00.0618-.0932.0982.0982 0 00-.0618-.0927L9.6575 5.0139a.6983.6983 0 00-.539 0zm5.2533 2.5143a.8843.8843 0 01-.3433-.0695L1.1767 8.6465A.2827.2827 0 011 8.3808c0-.1185.068-.2201.1774-.2656L9.047 4.8411a.8842.8842 0 01.6826 0l4.9996 2.0803a.2833.2833 0 01.1774.2656.2842.2842 0 01-.1774.266L6.8438 10.734a.894.894 0 01-.3415.0684" fill="#41404d"/><path d="M1.2132 7.3351L9.0826 4.061a.7941.7941 0 01.611 0l4.9996 2.0803c.1598.0664.1598.2921 0 .3585L6.8076 9.7806a.7936.7936 0 01-.6121-.0007L1.2129 7.6936c-.1595-.0667-.1591-.2925.0003-.3585" fill="#fff"/><path d="M11.8146 6.8537v.8438l1.7572-.7313-.4162-.7045z" fill="#dadada"/><path d="M1.249 7.4214a.0985.0985 0 00-.0617.0928.0976.0976 0 00.0618.0928l4.9822 2.0867a.698.698 0 00.5408.0003l7.8853-3.2805a.0986.0986 0 00.0618-.0931.0982.0982 0 00-.0618-.0928L9.6575 4.1473a.6983.6983 0 00-.539 0zm5.2533 2.5143a.8843.8843 0 01-.3433-.0695L1.1767 7.7798A.283.283 0 011 7.5142c0-.1185.068-.2201.1774-.2656L9.047 3.9744a.8858.8858 0 01.6826 0l4.9996 2.0804a.2833.2833 0 01.1774.2656.2833.2833 0 01-.1774.2656L6.8438 9.8672a.894.894 0 01-.3415.0685" fill="#41404d"/><path d="M1.2132 6.4697l7.8694-3.2741a.7973.7973 0 01.611 0l4.9996 2.0803c.1598.0664.1598.2921 0 .3585L6.8076 8.9152a.792.792 0 01-.6121-.0007L1.2129 6.8282c-.1595-.0667-.1591-.2921.0003-.3585" fill="#fff"/><path d="M12.648 5.4989l-.8332.4882v.8665l1.3469-.5828z" fill="#dadada"/><path d="M1.2132 6.4685h.0021zm8.175-3.242a.6997.6997 0 00-.27.0543L1.2493 6.555c-.0575.0236-.0617.0769-.0617.0927a.0979.0979 0 00.0617.0928L6.2315 8.827c.1848.0776.3686.0754.5609-.0078l7.5833-3.1549c.2537-.1058.3214-.212.3214-.2582 0-.0187-.0138-.0343-.0399-.0452l-4.9995-2.08a.6993.6993 0 00-.2696-.0543M6.5003 9.0703a.8748.8748 0 01-.3411-.071L1.1765 6.913a.283.283 0 01-.1764-.2656.283.283 0 01.1771-.2653L9.0466 3.108a.8842.8842 0 01.6827 0l4.9999 2.08c.097.0405.1549.122.1549.218 0 .0931-.0568.2727-.4368.431L6.8654 8.9913c-.1213.0526-.2434.079-.3651.079" fill="#41404d"/><path d="M1.2132 5.6019l7.8694-3.2741a.7973.7973 0 01.611 0l4.9996 2.0803c.1598.0663.1598.2921 0 .3584L6.8076 8.0474a.7936.7936 0 01-.6121-.0007L1.2129 5.9603c-.1595-.0667-.1591-.2924.0003-.3584" fill="#f4c151"/><path d="M1.2132 5.6019h.0021zm8.175-3.2417a.7058.7058 0 00-.27.054l-7.869 3.2741c-.0575.0237-.0617.077-.0617.0928a.0973.0973 0 00.0617.0928l4.9823 2.0863a.6956.6956 0 00.5404.0007l7.8853-3.2808a.0987.0987 0 00.0621-.0928.0987.0987 0 00-.062-.0928L9.6576 2.4142a.7054.7054 0 00-.2696-.054m-2.8857 5.842a.8818.8818 0 01-.3432-.0695l-4.9827-2.086a.2836.2836 0 01-.1764-.266c0-.1185.0681-.22.1771-.2652l7.8694-3.2742a.8858.8858 0 01.6827 0l4.9999 2.0804a.2834.2834 0 01.177.2656.2834.2834 0 01-.177.2657L6.8436 8.1338a.8857.8857 0 01-.3412.0684" fill="#41404d"/><path d="M6.1077 5.655c0 .3351-.593.6067-1.3247.6067-.7313 0-1.3244-.2716-1.3244-.6067 0-.3352.593-.6068 1.3244-.6068.7316 0 1.3247.2716 1.3247.6068" fill="#fff"/><path d="M4.7832 5.1418c-.7253 0-1.2308.2706-1.2308.5133 0 .2427.5055.5133 1.2308.5133s1.2305-.2706 1.2305-.5133c0-.2427-.5052-.5133-1.2305-.5133m0 1.2136c-.7951 0-1.4181-.3077-1.4181-.7003 0-.393.623-.7006 1.4181-.7006.7952 0 1.4178.3076 1.4178.7006 0 .3926-.6226.7003-1.4178.7003" fill="#41404d"/><path d="M8.7835 5.3416l-.6886.29" fill="#f4c151"/><path d="M8.0948 5.7252a.0938.0938 0 01-.0864-.0571.0939.0939 0 01.05-.1228l.689-.29a.0935.0935 0 11.0723.1725l-.6885.29a.0893.0893 0 01-.0364.0074" fill="#41404d"/><path d="M11.4726 3.5457l-1.1.4632" fill="#f4c151"/><path d="M10.3724 4.1026a.0938.0938 0 01-.0865-.0572.0939.0939 0 01.0501-.1227l1.1003-.4632a.0942.0942 0 01.1224.0497.0939.0939 0 01-.05.1228l-1.1.4632a.0956.0956 0 01-.0363.0074" fill="#41404d"/><path d="M12.2561 3.8988l-2.874 1.1995" fill="#f4c151"/><path d="M9.382 5.192a.094.094 0 01-.0864-.058.0934.0934 0 01.0501-.122l2.8745-1.1998a.0945.0945 0 01.1224.0505.0932.0932 0 01-.0501.1224l-2.874 1.1994a.097.097 0 01-.0364.0074" fill="#41404d"/><path d="M9.5653 5.6772l-.6424.271" fill="#f4c151"/><path d="M8.9228 6.0415a.0938.0938 0 01-.0864-.0572.0939.0939 0 01.05-.1227l.6425-.2706a.0935.0935 0 11.0723.1725l-.642.2706a.0956.0956 0 01-.0364.0074" fill="#41404d"/><path d="M13.038 4.2346L10.164 5.434" fill="#f4c151"/><path d="M10.1636 5.5275a.0936.0936 0 01-.0364-.18l2.8748-1.1994c.049-.0187.1027.0025.1224.0505a.0934.0934 0 01-.05.1224l-2.8745 1.1994a.1038.1038 0 01-.0363.0071" fill="#41404d"/><path d="M20.4556 8.4502l.3119.5277a.3794.3794 0 01-.1806.5426l-4.9605 2.0687a.3792.3792 0 01-.4723-.157l-4.5477-7.6987a.3786.3786 0 01.1803-.5422l4.9608-2.069a.3783.3783 0 01.472.157l1.6072 2.7206" fill="#f4c151"/><path d="M15.4818 11.7118a.474.474 0 01-.4078-.2318l-4.548-7.6986a.4718.4718 0 01-.042-.3895.4745.4745 0 01.2663-.2872l4.9608-2.069c.2176-.0893.4695-.0064.5888.1958l1.6072 2.721a.0938.0938 0 01-.0328.1284.0937.0937 0 01-.128-.0332l-1.6073-2.721a.2875.2875 0 00-.356-.1182l-4.9604 2.069a.2852.2852 0 00-.1358.4086l4.548 7.6987a.2857.2857 0 00.3553.1182l4.9607-2.069a.2857.2857 0 00.1613-.1733.2867.2867 0 00-.025-.2353l-.312-.5274a.0937.0937 0 01.0329-.1284.094.094 0 01.128.0328l.3119.5277c.0698.1179.085.26.0416.3895a.472.472 0 01-.2667.2872l-4.9604 2.0687a.4653.4653 0 01-.1806.0363" fill="#41404d"/><path d="M16.5455 3.762c-.216.4932-.8968.6717-1.5202.3987-.6233-.2734-.9535-.8943-.7376-1.3875.2159-.4932.8968-.6717 1.5201-.3986.6234.273.9536.8943.7377 1.3875" fill="#fff"/><path d="M15.2134 2.34c-.1009 0-.1997.0123-.2946.037-.2589.0677-.4526.2218-.5453.4335-.0928.212-.0748.4586.0511.695.1295.2434.356.4459.6385.5694.2826.1234.5839.1534.8513.0832.259-.0677.4526-.2219.5454-.4335.0924-.2117.0748-.4587-.0512-.6947-.1294-.2434-.3563-.4459-.6385-.5693-.182-.0798-.3729-.1207-.5567-.1207m.406 2.0426c-.2091 0-.4257-.0462-.6314-.1362-.3207-.1407-.5796-.3722-.7288-.653-.1532-.2878-.1733-.5923-.0568-.8576.1157-.2653.3534-.4568.6688-.5397.3073-.0805.6534-.0473.974.0928.3207.1407.5797.3725.7285.6533.1535.2875.1736.5923.0572.8576-.116.2653-.3535.4568-.6689.5394-.11.029-.2254.0434-.3425.0434M16.4386 10.467a.0926.0926 0 01-.0804-.046l-1.5811-2.6768a.0938.0938 0 01.0328-.1284.094.094 0 01.128.0331l1.5812 2.677a.0934.0934 0 01-.0805.141M14.5836 7.287a.0932.0932 0 01-.0793-.0442l-.4664-.75a.093.093 0 01.03-.1288.0932.0932 0 01.1284.03l.4667.75a.0937.0937 0 01-.0794.143M17.2264 10.1474a.093.093 0 01-.0805-.0459l-1.5815-2.6772a.0933.0933 0 11.1609-.095l1.5815 2.677a.0933.0933 0 01-.0804.141M17.9262 9.882a.093.093 0 01-.0804-.0463l-.918-1.5533a.0934.0934 0 01.0332-.128.0927.0927 0 01.1277.0328l.918 1.5536a.0934.0934 0 01-.0805.1411M15.371 6.9674a.0932.0932 0 01-.0794-.0441l-.466-.75a.0934.0934 0 01.03-.1288.0937.0937 0 01.1288.03l.466.75a.0934.0934 0 01-.0794.1429M18.9966 6.0735a.0933.0933 0 01-.0804-.0462l-.8333-1.41a.0933.0933 0 11.161-.095l.8332 1.4101a.0933.0933 0 01-.0805.1411" fill="#41404d"/></svg>