<svg xmlns="http://www.w3.org/2000/svg" viewBox="0 0 350 349"><defs><style>.a{fill:#fff;}.b{fill:#fafafa;}.c{fill:#ed1e79;}.d{fill:#07085b;}.e,.v{fill:#ff5b7e;}.f{fill:#feb546;}.g{fill:#f4a640;}.h{fill:#e03268;}.i,.r,.w{fill:#daeef7;}.j{fill:#55769f;}.k{fill:red;}.l{fill:#ed1c24;}.m{fill:#333;}.n{fill:#c1272d;}.o{fill:#d4145a;}.p{fill:#f0f;}.q{fill:#02ccc0;}.r,.v{opacity:0.3;}.s{fill:#06bfad;}.t{fill:#ffc0bb;}.u{fill:#fc8d84;}.w{opacity:0.5;}</style></defs><rect class="a" width="349.85" height="348.91"/><rect class="b" x="0.15" y="0.26" width="349.85" height="348.74"/><path class="c" d="M11.79,107.79c-6,5.32,2.61,13,5,14.9a70.57,70.57,0,0,0-1.63,8.83c-1.88-3.63-1.27-7.92-3-9.69-2-2-5.22-2.37-4.77,3.53.36,4.67,5.56,6.61,7.7,7.22A59.68,59.68,0,0,0,15,144.06c-2.69-3.76-2.44-8.77-4.65-10.51-2.42-1.9-6-1.83-4.85,4.61,1,5.32,7.39,6.57,9.6,6.85a29.77,29.77,0,0,0,.73,4.28c.77,3.07,1.66,6,2.63,8.7-2.44-3.23-2.93-7.5-5.12-8.75-2.63-1.49-6.19-.84-4.24,5.34,1.54,4.89,7.57,5.29,10,5.25a86.32,86.32,0,0,0,7.18,14.69c-3-1.85-6.18-7.08-9.48-7.63A3.3,3.3,0,0,0,13,169a4.27,4.27,0,0,0-.07,3.22c2.25,5.85,11.15,3.81,13.81,3.06a75.71,75.71,0,0,0,9.59,12.25c-1.58-.95-3.95-2.38-5.16-3.19-1.9-1.28-5.05-1.85-6.89-.65l-.22.15A4.17,4.17,0,0,0,23,188.6c2.52,6.6,12.44,1.33,14.55.12l.06.06c7.77,7.6,14.24,10.42,14.51,10.54l.38-1.15c-.06,0-6.23-2.73-13.56-9.72,3.15-11-.94-16.64-3.45-16.23s-4.95,4.12-1.91,7.95a33.46,33.46,0,0,1,4,7,73.72,73.72,0,0,1-9.85-12.42c8.2-12.26,1.13-17.38-1.73-15.5s-2.72,4.74-.74,8.46a20.34,20.34,0,0,1,2,6.35,84.25,84.25,0,0,1-7.1-14.39c2.29-.81,8-3.37,8.16-8.62.15-6.57-3.4-5.91-5.49-3.54-1.91,2.17-.86,7.1-3,11.36a95.84,95.84,0,0,1-3.09-9.92,41.48,41.48,0,0,1-1-8.21c2.38-.48,8.31-2.19,9-7.37.87-6.49-2.73-6.34-5.06-4.3-2.07,1.82-1.66,6.62-4,10.49a64.26,64.26,0,0,1,1.95-16.33c2.47-.52,8.18-2.27,8.87-7.34.87-6.5-2.73-6.35-5.06-4.3-2.1,1.84-1.65,6.76-4.08,10.65l-.11,0c0-1.78.11-5.54.23-7.34.16-2.41-.78-5.68-2.51-6.89A3,3,0,0,0,11.79,107.79Z" transform="translate(0 -0.5)"/><path class="d" d="M115.14,60.27c-11.8-1.12-8.8,18-7.8,23.12a85.42,85.42,0,0,0-9.9,8.19c1.14-6.42,5.74-10.61,5.31-14.78-.47-4.67-3.84-9-8.68-1.64-3.83,5.81.37,14.25,2.28,17.5a77.88,77.88,0,0,0-10.53,13.09c.32-7.52,5.17-13,4.21-17.62-1.06-5.08-5.26-9.31-9.76-.51-3.72,7.27,2.52,16.4,4.8,19.34a46.34,46.34,0,0,0-3.06,5.8q-2.85,6.69-4.89,13.14c.14-6.62,3.46-12.12,2.07-16.17-1.66-4.85-6.33-8.37-9.72,1.06-2.68,7.46,3.89,15.15,6.75,18a143,143,0,0,0-5.1,25.48c-1.81-5.77-.67-15.54-4-20.11-2.16-3-4.6-2.77-6.28-2.05a5.55,5.55,0,0,0-3,3.61c-2.74,9.42,9.34,17.72,13.09,20a138.29,138.29,0,0,0-.12,25.55c-1-3-2.39-7.46-3-9.84-1-3.74-4.12-8.16-7.32-9l-.39-.09c-2.47-.44-4.79,1.39-5.58,4.1-3.12,10.6,13.07,16.41,16.6,17.54,0,0,0,.1,0,.15,2,18,6.88,29,7.09,29.46l1.48-.87c0-.11-4.68-10.58-6.75-27.38,13.63-8.9,14.06-20.25,10.8-22.79s-9.44-1.18-9.42,6.86a58.23,58.23,0,0,1-1.72,12.87,135.55,135.55,0,0,1,0-26.06C93.17,152,89.7,137.67,84.7,136.4s-7.43,2.21-8.55,8.84A31,31,0,0,1,72.72,155a141.9,141.9,0,0,1,4.93-25c3.37,1.81,12.3,5.74,17.22-.15,6.15-7.37,1.46-10.85-3.08-10.63-4.18.21-7.46,7.13-13.76,9.49a149,149,0,0,1,5.48-15.08A57.92,57.92,0,0,1,89.86,103c3.19,2.3,11.55,7.42,17.06,2.31,6.91-6.41,2.64-10.55-1.9-11-4-.39-7.93,5.62-14.11,7.28A80.56,80.56,0,0,1,108,85.17c3.32,2.36,11.46,7.19,16.86,2.18,6.91-6.42,2.64-10.55-1.89-11-4.1-.4-8,5.79-14.38,7.35l-.09-.17c1.65-2,5.16-6.24,6.94-8.16,2.36-2.57,4.27-7.46,3.38-10.93A5.62,5.62,0,0,0,115.14,60.27Z" transform="translate(0 -0.5)"/><path class="e" d="M57.08,163.11a7.57,7.57,0,0,0-7.48,2.35c-2.74,3-4.25,8.54-4.5,16.49-.06,2,0,4,0,5.58-.81-1.35-1.81-2.91-2.94-4.5-4.39-6.16-8.52-9.53-12.28-10-2.7-.34-5.19.8-7.2,3.31-3.66,4.58-4.31,9.64-1.79,13.88,2,3.34,5.87,5.83,10.65,6.84a24.4,24.4,0,0,0,13.65-1.18l1.14-.48.6-.26,1.35-.45c.39-.13.78-.26,1.16-.41A27.72,27.72,0,0,0,61,185.75c3.27-4.12,5.05-8.8,4.87-12.84C65.6,167.78,62.42,164.21,57.08,163.11ZM24.61,187.33c-1.31-2.2-.84-4.73,1.4-7.52a4.58,4.58,0,0,1,1.9-1.52,3,3,0,0,1,1.51-.17c2.47.32,5.76,3.19,9.27,8.11,1.39,1.93,2.57,3.87,3.43,5.35C34.66,193.76,27.05,191.42,24.61,187.33Zm36.76-14.16c.21,5-4.61,12.09-11.7,15.54-.1-1.78-.18-4.14-.1-6.65.21-6.34,1.31-10.92,3.12-12.88a3.3,3.3,0,0,1,1.29-.92,4.07,4.07,0,0,1,2.31-.11C59.54,168.82,61.25,170.51,61.37,173.17Z" transform="translate(0 -0.5)"/><path class="f" d="M94.91,249.91l-54.45,21c-2.93,1.14-6.11-.67-7.1-4L17.18,211.82c-1-3.36.59-7,3.52-8.14l54.45-21c2.93-1.13,6.11.68,7.1,4l16.18,55.09C99.41,245.13,97.84,248.77,94.91,249.91Z" transform="translate(0 -0.5)"/><path class="g" d="M90.34,214.22,25.27,239.36l-7.58-25.8c-1.27-4.32.76-9,4.53-10.46l51.41-19.87c3.77-1.45,7.86.87,9.13,5.19Z" transform="translate(0 -0.5)"/><path class="f" d="M89,205.29l-67.32,26A3.62,3.62,0,0,1,17,228.64l-5-17.1a4.41,4.41,0,0,1,2.32-5.37l67.33-26a3.6,3.6,0,0,1,4.68,2.66l5,17.1A4.4,4.4,0,0,1,89,205.29Z" transform="translate(0 -0.5)"/><polygon class="e" points="75.49 256.91 60.66 262.64 40.91 195.38 55.74 189.65 75.49 256.91"/><polygon class="h" points="65.62 223.28 50.78 229.01 48.29 220.51 63.12 214.78 65.62 223.28"/><polygon class="f" points="291.61 247.99 225.41 220.13 254.89 128.03 321.08 155.89 291.61 247.99"/><polygon class="g" points="258.51 234.06 225.41 220.13 254.89 128.03 287.98 141.96 258.51 234.06"/><path class="i" d="M264.68,141.65h0a1.66,1.66,0,0,1-.68-2.13,65.35,65.35,0,0,1,8-13.67c7.45-9.55,15.89-13,24.41-9.86a17.91,17.91,0,0,1,10.44,10c5,11.11,1.84,26.87.64,31.87a1.35,1.35,0,0,1-1.74,1.07h0a1.62,1.62,0,0,1-.9-1.9c1.1-4.64,4.07-19.61-.42-29.62a15.21,15.21,0,0,0-8.84-8.44c-7.53-2.74-14.78.28-21.56,9a62.68,62.68,0,0,0-7.57,13A1.29,1.29,0,0,1,264.68,141.65Z" transform="translate(0 -0.5)"/><path class="j" d="M63.19,226.62a33,33,0,0,1,9.09,12.89c-1.65,2-3.57,4.34-3.57,4.34l4.63-1.14c5,18-5.48,37.15-5.48,37.15C58,271.44,53.92,263,53,255.41c1.51-.91,3.77-2.22,3.77-2.22l-4-.24a31.91,31.91,0,0,1,1.32-10.36c2.07.14,4.42.24,4.42.24l-3.4-3.22A41.94,41.94,0,0,1,63.19,226.62Z" transform="translate(0 -0.5)"/><path class="k" d="M12.78,238.91c11.66-1.87,21.69-.34,30.28,3.33.14,5.74.43,12.56.43,12.56l5.33-9.67c31,18,40.63,64.23,40.63,64.23-25.59,4.6-42.66-.81-54-10.34,1-3.94,2.65-9.77,2.65-9.77l-6.18,6.5A58.81,58.81,0,0,1,20.24,278.2c3.23-3.36,6.82-7.26,6.82-7.26l-9.22,1.11A100,100,0,0,1,12.78,238.91Z" transform="translate(0 -0.5)"/><path class="l" d="M35.41,299c1-3.94,2.65-9.77,2.65-9.77l-6.18,6.5A58.81,58.81,0,0,1,20.24,278.2c3.23-3.36,6.82-7.26,6.82-7.26l-9.22,1.11a100,100,0,0,1-5.06-33.14c37.92,17.32,76.67,70.45,76.67,70.45C63.86,314,46.79,308.55,35.41,299Z" transform="translate(0 -0.5)"/><path class="e" d="M10.9,299c5.38-6.51,11.13-10.49,16.91-12.67,2.14,2.91,4.75,6.31,4.75,6.31l-.73-7.55c22.55-5.41,44.28,14,44.28,14C64.5,313.64,53.7,319,44.36,319.41c-.88-2.53-2.16-6.32-2.16-6.32l-.85,6.31A30.67,30.67,0,0,1,29,315.83c.46-3.27.91-7,.91-7l-4.37,5A54.53,54.53,0,0,1,10.9,299Z" transform="translate(0 -0.5)"/><path class="h" d="M44.36,319.41c-.88-2.53-2.16-6.32-2.16-6.32l-.85,6.31A30.67,30.67,0,0,1,29,315.83c.46-3.27.91-7,.91-7l-4.37,5A54.53,54.53,0,0,1,10.9,299c25.92-9,65.21.06,65.21.06C64.5,313.64,53.7,319,44.36,319.41Z" transform="translate(0 -0.5)"/><path class="d" d="M53,255.41c1.51-.91,3.77-2.22,3.77-2.22l-4-.24a31.91,31.91,0,0,1,1.32-10.36c2.07.14,4.42.24,4.42.24l-3.4-3.22a41.94,41.94,0,0,1,8.11-13c7.49,20.51,4.67,53.24,4.67,53.24C58,271.44,53.92,263,53,255.41Z" transform="translate(0 -0.5)"/><path class="e" d="M271,228l37.83-59.67a4,4,0,0,1,6.06-1.1l29.32,24.45a5.48,5.48,0,0,1,1,7L307.3,258.3a4,4,0,0,1-6.06,1.1L271.92,235A5.46,5.46,0,0,1,271,228Z" transform="translate(0 -0.5)"/><polygon class="m" points="287.47 247.43 330.41 179.71 339.66 187.42 296.73 255.14 287.47 247.43"/><path class="m" d="M303.85,198.39l14.7-23.18a.53.53,0,0,1,.8-.15l.14.11a.74.74,0,0,1,.13.93l-14.7,23.18a.52.52,0,0,1-.8.14l-.14-.11A.73.73,0,0,1,303.85,198.39Z" transform="translate(0 -0.5)"/><path class="m" d="M303.79,192.13,315.92,173a.53.53,0,0,1,.8-.15l.14.12a.73.73,0,0,1,.13.92L304.86,193a.52.52,0,0,1-.8.15l-.14-.11A.74.74,0,0,1,303.79,192.13Z" transform="translate(0 -0.5)"/><path class="m" d="M298.59,194l14.69-23.17a.53.53,0,0,1,.81-.15l.14.11a.74.74,0,0,1,.12.93l-14.69,23.18a.53.53,0,0,1-.81.14l-.13-.11A.73.73,0,0,1,298.59,194Z" transform="translate(0 -0.5)"/><path class="m" d="M278.21,226.13l4.62-7.29a2.34,2.34,0,0,1,3.54-.64l2.24,1.87a3.2,3.2,0,0,1,.56,4.06l-4.62,7.28a2.33,2.33,0,0,1-3.54.64l-2.24-1.86A3.2,3.2,0,0,1,278.21,226.13Z" transform="translate(0 -0.5)"/><path class="j" d="M291.66,203.06a34.5,34.5,0,0,0-13.82,11.17c1.31,2.81,2.81,6.19,2.81,6.19l-4.89-3c-10.63,18.45-4.19,43.83-4.19,43.83,13.45-5.86,20.39-13.86,23.6-22.06-1.45-1.57-3.63-3.87-3.63-3.87l4.55,1.18a37.13,37.13,0,0,0,1.4-12.15c-2.37-.6-5-1.35-5-1.35l4.72-2.37A53.37,53.37,0,0,0,291.66,203.06Z" transform="translate(0 -0.5)"/><path class="d" d="M295.17,239.21c-1.45-1.57-3.63-3.87-3.63-3.87l4.55,1.18a37.13,37.13,0,0,0,1.4-12.15c-2.37-.6-5-1.35-5-1.35l4.72-2.37a53.37,53.37,0,0,0-5.51-17.59c-14.15,20.33-20.09,58.21-20.09,58.21C285,255.41,292,247.41,295.17,239.21Z" transform="translate(0 -0.5)"/><path class="l" d="M343.86,219.15c-13.63-2.37-25.39-.74-35.48,3.42-.23,6.71-.64,14.69-.64,14.69l-6.12-11.4c-36.45,20.55-48.31,74.53-48.31,74.53,29.9,5.78,49.93-.29,63.36-11.27-1.17-4.62-3-11.46-3-11.46l7.16,7.7A68.26,68.26,0,0,0,334.66,265c-3.74-4-7.9-8.6-7.9-8.6l10.78,1.45A116.93,116.93,0,0,0,343.86,219.15Z" transform="translate(0 -0.5)"/><path class="n" d="M316.67,289.12c-1.17-4.62-3-11.46-3-11.46l7.16,7.7A68.26,68.26,0,0,0,334.66,265c-3.74-4-7.9-8.6-7.9-8.6l10.78,1.45a116.93,116.93,0,0,0,6.32-38.69c-44.59,19.68-90.55,81.24-90.55,81.24C283.21,306.17,303.24,300.1,316.67,289.12Z" transform="translate(0 -0.5)"/><path class="c" d="M334.09,291.27c-7.2-6.47-14.46-9.92-21.48-11.29-2,3.79-4.55,8.25-4.55,8.25l-.3-8.88c-26.91-1.75-49.11,25-49.11,25,15.64,14.53,29,18.51,39.83,17.19.63-3.11,1.53-7.75,1.53-7.75l1.95,7.13a37.28,37.28,0,0,0,13.78-6.6c-1-3.7-2.12-7.92-2.12-7.92l5.82,4.87A67.76,67.76,0,0,0,334.09,291.27Z" transform="translate(0 -0.5)"/><path class="o" d="M298.48,321.55c.63-3.11,1.53-7.75,1.53-7.75l1.95,7.13a37.28,37.28,0,0,0,13.78-6.6c-1-3.7-2.12-7.92-2.12-7.92l5.82,4.87a67.76,67.76,0,0,0,14.65-20c-31.36-5.3-75.44,13.09-75.44,13.09C274.29,318.89,287.6,322.87,298.48,321.55Z" transform="translate(0 -0.5)"/><path class="f" d="M241.25,31.71s-.27,3-2.32,3.19c2,.21,2.32,3.2,2.32,3.2s.26-3,2.31-3.2C241.51,34.7,241.25,31.71,241.25,31.71Z" transform="translate(0 -0.5)"/><path class="f" d="M196.88,128.54s-.44,5-3.91,5.38c3.47.35,3.91,5.38,3.91,5.38s.45-5,3.91-5.38C197.33,133.57,196.88,128.54,196.88,128.54Z" transform="translate(0 -0.5)"/><path class="d" d="M315.68,71.21s-.45,5.08-3.94,5.43c3.49.35,3.94,5.42,3.94,5.42s.45-5.07,3.94-5.42C316.13,76.29,315.68,71.21,315.68,71.21Z" transform="translate(0 -0.5)"/><path class="p" d="M264.69,89.8s-.49,5.48-4.26,5.86c3.77.38,4.26,5.86,4.26,5.86s.48-5.48,4.26-5.86C265.17,95.28,264.69,89.8,264.69,89.8Z" transform="translate(0 -0.5)"/><path class="q" d="M156.35,32.23s-.48,5.49-4.26,5.87c3.78.37,4.26,5.86,4.26,5.86s.49-5.49,4.26-5.86C156.84,37.72,156.35,32.23,156.35,32.23Z" transform="translate(0 -0.5)"/><path class="d" d="M206.27,8.53S205.79,14,202,14.39c3.78.38,4.26,5.87,4.26,5.87s.49-5.49,4.26-5.87C206.76,14,206.27,8.53,206.27,8.53Z" transform="translate(0 -0.5)"/><path class="e" d="M286.71,15.42s-.49,5.48-4.26,5.86c3.77.38,4.26,5.86,4.26,5.86s.48-5.48,4.25-5.86C287.19,20.9,286.71,15.42,286.71,15.42Z" transform="translate(0 -0.5)"/><path class="e" d="M151.82,91.37s-.27,3.13-2.43,3.35c2.16.21,2.43,3.34,2.43,3.34s.28-3.13,2.43-3.34C152.1,94.5,151.82,91.37,151.82,91.37Z" transform="translate(0 -0.5)"/><rect class="m" x="79.18" y="156.06" width="194.07" height="162.73" rx="44.31"/><path class="i" d="M98.34,162.41H259.52a0,0,0,0,1,0,0v150a0,0,0,0,1,0,0H98.34a14.12,14.12,0,0,1-14.12-14.12V176.53A14.12,14.12,0,0,1,98.34,162.41Z"/><path class="r" d="M271.48,237.93c0,3.11-2.2,5.64-4.92,5.64s-4.92-2.53-4.92-5.64,2.2-5.65,4.92-5.65S271.48,234.81,271.48,237.93Z" transform="translate(0 -0.5)"/><rect class="a" x="91.31" y="182.3" width="159.97" height="127.56"/><path class="i" d="M268,240.28h-2.94a.63.63,0,0,1-.58-.67v-3.37a.63.63,0,0,1,.58-.67H268a.63.63,0,0,1,.58.67v3.37A.63.63,0,0,1,268,240.28Zm-2.94-4.52a.45.45,0,0,0-.42.48v3.37a.45.45,0,0,0,.42.48H268a.45.45,0,0,0,.42-.48v-3.37a.45.45,0,0,0-.42-.48Z" transform="translate(0 -0.5)"/><path class="e" d="M251.28,186.3v-9.45c0-3.23-2.29-5.86-5.11-5.86H96.42c-2.82,0-5.11,2.63-5.11,5.86v9.45Z" transform="translate(0 -0.5)"/><rect class="a" x="175.55" y="174.43" width="68.86" height="7.44" rx="3.69"/><path class="a" d="M104.52,178.65a2.84,2.84,0,1,1-2.81-3.23A3,3,0,0,1,104.52,178.65Z" transform="translate(0 -0.5)"/><ellipse class="a" cx="114.02" cy="178.15" rx="2.82" ry="3.23"/><path class="a" d="M129.14,178.65a2.84,2.84,0,1,1-2.82-3.23A3,3,0,0,1,129.14,178.65Z" transform="translate(0 -0.5)"/><rect class="i" x="98.72" y="197.27" width="40.48" height="82.59" rx="20.01"/><rect class="i" x="151.05" y="197.27" width="40.48" height="82.59" rx="20.01"/><rect class="i" x="203.38" y="197.27" width="40.48" height="82.59" rx="20.01"/><path class="f" d="M137.08,230.27a29.07,29.07,0,0,0-12.76-17c-.47,4.36-3.66,5-5.14,5v0l-.39,0-.38,0v0c-1.49-.05-4.67-.66-5.15-5a29.08,29.08,0,0,0-12.75,17,7.19,7.19,0,0,0,5.6,2.5l-.47,27.83s2.21,1.9,11.67,1.68c1,0,2,0,3,0,9.47.22,11.68-1.68,11.68-1.68l-.47-27.83A7.21,7.21,0,0,0,137.08,230.27Z" transform="translate(0 -0.5)"/><path class="e" d="M98.1,234.22h2.28a3.06,3.06,0,0,1,3.06,3.06v.05a3.06,3.06,0,0,1-3.06,3.06H98.1A3.06,3.06,0,0,1,95,237.33v-.05a3.07,3.07,0,0,1,3.07-3.07Z"/><polygon class="a" points="102.04 237.06 97.66 237.06 98.96 235.68 98.67 235.32 96.81 237.31 98.67 239.29 98.96 238.94 97.66 237.55 102.04 237.55 102.04 237.06"/><path class="e" d="M243.27,234.72h2.28a3.06,3.06,0,0,1,3.06,3.06v.05a3.06,3.06,0,0,1-3.06,3.06h-2.28a3.06,3.06,0,0,1-3.06-3.06v-.05a3.07,3.07,0,0,1,3.07-3.07Z" transform="translate(488.82 475.11) rotate(180)"/><polygon class="a" points="241.61 237.06 246 237.06 244.7 235.68 244.99 235.32 246.84 237.31 244.99 239.29 244.7 238.94 246 237.55 241.61 237.55 241.61 237.06"/><rect class="e" x="149.67" y="296.97" width="44.4" height="9.62" rx="4.77"/><path class="a" d="M163.43,303a1.36,1.36,0,0,1-.05.36,1.34,1.34,0,0,1-.12.3.83.83,0,0,1-.19.23.92.92,0,0,1-.25.17l-.29.1a2,2,0,0,1-.36,0h-.95a.21.21,0,0,1-.12-.05s0-.09,0-.17v-3.7c0-.08,0-.14,0-.17a.21.21,0,0,1,.12-.05H162a1.54,1.54,0,0,1,.53.07.87.87,0,0,1,.56.54,1.45,1.45,0,0,1,.07.44,1.27,1.27,0,0,1,0,.28,1.06,1.06,0,0,1-.09.25,1,1,0,0,1-.16.2,1,1,0,0,1-.2.15.81.81,0,0,1,.27.11,1,1,0,0,1,.23.22,1.28,1.28,0,0,1,.15.31A1.12,1.12,0,0,1,163.43,303Zm-.73-1.85a1.12,1.12,0,0,0,0-.27.72.72,0,0,0-.12-.21.58.58,0,0,0-.2-.13,1,1,0,0,0-.33,0h-.5v1.34h.55a.67.67,0,0,0,.3-.06.45.45,0,0,0,.19-.15.65.65,0,0,0,.11-.22A1.09,1.09,0,0,0,162.7,301.18Zm.22,1.89a1,1,0,0,0,0-.33,1,1,0,0,0-.15-.24.68.68,0,0,0-.25-.14,1,1,0,0,0-.37-.05h-.58v1.46h.7a.88.88,0,0,0,.29,0,.57.57,0,0,0,.21-.13.71.71,0,0,0,.15-.22A.94.94,0,0,0,162.92,303.07Z" transform="translate(0 -0.5)"/><path class="a" d="M166.87,302.69a2,2,0,0,1-.1.67,1.38,1.38,0,0,1-.27.51,1.25,1.25,0,0,1-.44.31,1.5,1.5,0,0,1-.58.1,1.42,1.42,0,0,1-.55-.1,1.1,1.1,0,0,1-.42-.29,1.52,1.52,0,0,1-.27-.49,2.22,2.22,0,0,1-.09-.67v-2.57a.06.06,0,0,1,0,0l0,0,.07,0h.23l.08,0,0,0a.06.06,0,0,1,0,0v2.51a1.83,1.83,0,0,0,.07.5,1,1,0,0,0,.17.35.74.74,0,0,0,.28.22,1,1,0,0,0,.74,0,.83.83,0,0,0,.28-.21,1,1,0,0,0,.17-.35,1.77,1.77,0,0,0,.06-.49v-2.53a.06.06,0,0,1,0,0l0,0,.07,0h.23l.08,0,0,0a.08.08,0,0,1,0,0Z" transform="translate(0 -0.5)"/><path class="a" d="M169.83,304a.28.28,0,0,1,0,.1.19.19,0,0,1,0,.08l0,0H168a.17.17,0,0,1-.12-.05.21.21,0,0,1-.06-.17v-3.7a.21.21,0,0,1,.06-.17.17.17,0,0,1,.12-.05h1.75l0,.05s0,0,0,.07v.21s0,.05,0,.07l0,0H168.3v1.3h1.25l0,0a.64.64,0,0,1,0,.07v.21s0,.05,0,.06l0,0H168.3v1.48h1.43l0,0s0,0,0,0a.12.12,0,0,1,0,.07A.31.31,0,0,1,169.83,304Z" transform="translate(0 -0.5)"/><path class="a" d="M174.63,304a.31.31,0,0,1,0,.11.22.22,0,0,1-.05.08l-.07,0h-.23l-.13,0a.24.24,0,0,1-.11-.06.49.49,0,0,1-.1-.13l-.11-.2-1.1-2.36c-.06-.12-.11-.25-.17-.38s-.12-.26-.17-.39h0c0,.16,0,.31,0,.47v3a.06.06,0,0,1,0,0s0,0,0,0l-.08,0H172l-.07,0s0,0,0,0a.06.06,0,0,1,0,0v-3.82a.21.21,0,0,1,.2-.24h.24l.14,0,.1,0a.27.27,0,0,1,.08.1,1.31,1.31,0,0,1,.09.17l.85,1.81.15.33c.05.1.09.21.14.31l.13.3c0,.1.09.2.13.3h0c0-.17,0-.34,0-.52v-2.78a.08.08,0,0,1,0,0l0,0,.07,0h.23l.08,0,0,0s0,0,0,0Z" transform="translate(0 -0.5)"/><path class="a" d="M178.61,302.1a3.62,3.62,0,0,1-.1.91,1.86,1.86,0,0,1-.31.68,1.38,1.38,0,0,1-.52.44,1.59,1.59,0,0,1-.72.15,1.54,1.54,0,0,1-.7-.14,1.28,1.28,0,0,1-.49-.4,1.81,1.81,0,0,1-.29-.66,4.08,4.08,0,0,1-.1-.91,3.56,3.56,0,0,1,.11-.89,2,2,0,0,1,.31-.68,1.42,1.42,0,0,1,.51-.43A1.66,1.66,0,0,1,177,300a1.68,1.68,0,0,1,.7.14,1.19,1.19,0,0,1,.49.4,1.76,1.76,0,0,1,.29.65A3.46,3.46,0,0,1,178.61,302.1Zm-.51,0a3.36,3.36,0,0,0,0-.65,1.94,1.94,0,0,0-.18-.53.92.92,0,0,0-.34-.34,1,1,0,0,0-.52-.13.92.92,0,0,0-.87.49,1.66,1.66,0,0,0-.19.53,3.11,3.11,0,0,0-.06.62,4.72,4.72,0,0,0,.05.68,1.94,1.94,0,0,0,.18.53,1,1,0,0,0,.34.34,1,1,0,0,0,.53.13,1,1,0,0,0,.53-.14,1.07,1.07,0,0,0,.34-.36,1.75,1.75,0,0,0,.19-.53A4.26,4.26,0,0,0,178.1,302.14Z" transform="translate(0 -0.5)"/><path class="a" d="M182.76,304.1a.09.09,0,0,1,0,.07.09.09,0,0,1-.06,0l-.1,0h-.28l-.1,0a.09.09,0,0,1-.06,0l0-.07-.76-3.13h0l-.7,3.13,0,.07a.1.1,0,0,1-.05,0l-.1,0h-.3l-.1,0-.06,0,0-.07-.95-3.82a.74.74,0,0,1,0-.12.08.08,0,0,1,0-.06.1.1,0,0,1,.08,0h.35a.08.08,0,0,1,0,0s0,0,0,.06l.81,3.46h0l.77-3.46s0,0,0-.06l0,0,.08,0h.26l.08,0,0,0a.14.14,0,0,0,0,.06l.82,3.46h0l.8-3.46s0,0,0-.06l0,0,.07,0h.26l.08,0a.14.14,0,0,1,0,.06.74.74,0,0,1,0,.12Z" transform="translate(0 -0.5)"/><path class="e" d="M183.6,251.23a31.2,31.2,0,0,1-1.73-19.1l.88-3.88c-2.67-4.26-1.19-15.17-1.19-15.17l-2.37-.85s-1.79,8.35-7.88,8.18c-6.09.17-7.87-8.18-7.87-8.18l-2.38.85s1.49,10.91-1.19,15.17l.88,3.88a31.13,31.13,0,0,1-1.73,19.1l-4.79,11.1a20.26,20.26,0,0,0,16.16,7.87h1.84a20.29,20.29,0,0,0,16.17-7.87Z" transform="translate(0 -0.5)"/><path class="g" d="M137.08,230.27a29.07,29.07,0,0,0-12.76-17c-.47,4.36-3.66,5-5.14,5v0l-.22,0v43.93l1.31,0c9.47.22,11.68-1.68,11.68-1.68l-.47-27.83A7.21,7.21,0,0,0,137.08,230.27Z" transform="translate(0 -0.5)"/><path class="h" d="M183.6,251.23a31.2,31.2,0,0,1-1.73-19.1l.88-3.88c-2.67-4.26-1.19-15.17-1.19-15.17l-2.37-.85s-1.79,8.35-7.88,8.18v49.78h.92a20.29,20.29,0,0,0,16.17-7.87Z" transform="translate(0 -0.5)"/><path class="q" d="M235,228.83h0c-2.63-4.29-1.16-15.11-1.16-15.11l-2.38-.86s-1.78,8.35-7.87,8.18c-6.09.17-7.87-8.18-7.87-8.18l-2.38.86s1.47,10.82-1.16,15.11l-2.68,40.74h28.17Z" transform="translate(0 -0.5)"/><path class="s" d="M235,228.83h0c-2.63-4.29-1.16-15.11-1.16-15.11l-2.38-.86s-1.78,8.35-7.87,8.18h0v48.53h14.09Z" transform="translate(0 -0.5)"/><path class="t" d="M270.42,341.49c-.42-.65-8.92-23.56-9.35-28.76s-3-49.56-7.51-54.76-8.92,1.14-8.92,1.14S241,241.72,232,251.31c0,0-5.53-11.05-9.78-9.26S219.7,259,219.7,259s-.22,4.19-2.83-1.95c-3.74-8.78-13.5-47-19.41-45.17-9.05,2.82,11.19,65.64,11.19,65.64s-9.68-16.72-17-11.09a2.19,2.19,0,0,0-.2,3.11c2.36,2.56,7.09,8.27,9.23,15,2.65,8.29,0,18.85,22.95,36.39l7.51,24.38s28.24,10.34,39.2-3.69C270.42,341.52,270.43,341.51,270.42,341.49Z" transform="translate(0 -0.5)"/><path class="u" d="M79.18,264.6v17.61S67,303,66.92,299.34s-3.05-20.7-1.83-22.42,10.78-16,10.78-16Z" transform="translate(0 -0.5)"/><path class="t" d="M97.71,254.19c-9.26.45-9.63,18.21-15.19,25.19-2.76,3.47-5.34,3.72-7.31,3-3-1.11-4.44-5-3.14-8.35,2-5.07,7.11-9.42,7.11-9.42V251.92L63.55,267.8a14.36,14.36,0,0,0-3.86,7.85c-3.86,24.22,3.35,66,3.35,66a39.45,39.45,0,0,0,29.11,0l-3.82-20c8.5-10.24,7.44-33.88,7.86-43.63.33-7.44,2.26-17.29,3.16-21.54A1.79,1.79,0,0,0,97.71,254.19Z" transform="translate(0 -0.5)"/><path class="v" d="M98.79,256.77l-1.07,4.45a1.17,1.17,0,0,1-1,1c-.92.05-2.33-.05-2.79-1.05-.69-1.53,1.51-4.56,2.22-5.22S99,255.83,98.79,256.77Z" transform="translate(0 -0.5)"/><path class="v" d="M192.27,269.08l2.87,3.22a1,1,0,0,0,1.32.23c.82-.49,2-1.4,1.95-2.53-.08-1.72-3.31-3.06-4.21-3.21S191.66,268.4,192.27,269.08Z" transform="translate(0 -0.5)"/><path class="v" d="M197.47,222.93s3.15.64,4.93-1.46c0,0-1.73-9.18-4.37-8.34C195,214.1,197.47,222.93,197.47,222.93Z" transform="translate(0 -0.5)"/><rect class="i" x="100.51" y="283.97" width="34.05" height="1.79"/><rect class="i" x="100.51" y="288.12" width="34.05" height="1.79"/><rect class="i" x="100.51" y="292.28" width="34.05" height="1.79"/><rect class="i" x="154.84" y="283.97" width="34.05" height="1.79"/><rect class="i" x="154.84" y="288.12" width="34.05" height="1.79"/><ellipse class="e" cx="136.39" cy="202.02" rx="7.73" ry="8.87"/><path class="a" d="M136.4,200.53a4,4,0,0,1-.1.95,2.14,2.14,0,0,1-.3.72,1.46,1.46,0,0,1-.52.47,1.58,1.58,0,0,1-.74.17,1.55,1.55,0,0,1-.74-.16,1.32,1.32,0,0,1-.5-.44,2.35,2.35,0,0,1-.28-.72,4.61,4.61,0,0,1-.09-1,3.73,3.73,0,0,1,.1-.91,2.13,2.13,0,0,1,.29-.72,1.59,1.59,0,0,1,.52-.48,1.45,1.45,0,0,1,.74-.17,1.55,1.55,0,0,1,.78.18,1.31,1.31,0,0,1,.5.49,2.14,2.14,0,0,1,.27.71A4.94,4.94,0,0,1,136.4,200.53Zm-1.66,6.62a.22.22,0,0,1-.07.09l-.1.06-.14,0h-.2a.58.58,0,0,1-.21,0,.18.18,0,0,1-.11-.07.17.17,0,0,1,0-.1.47.47,0,0,1,.06-.15l5.29-8.69.07-.09.1-.06.14,0h.21a.56.56,0,0,1,.2,0,.18.18,0,0,1,.11.07.11.11,0,0,1,0,.11.35.35,0,0,1-.06.14Zm.84-6.58a4.36,4.36,0,0,0-.05-.67,1.8,1.8,0,0,0-.14-.49.67.67,0,0,0-.26-.29.64.64,0,0,0-.37-.1.63.63,0,0,0-.61.37,1.86,1.86,0,0,0-.15.47,4.33,4.33,0,0,0,0,.66,5.41,5.41,0,0,0,0,.77,1.58,1.58,0,0,0,.16.48.62.62,0,0,0,.26.25.8.8,0,0,0,.36.07.65.65,0,0,0,.38-.1.73.73,0,0,0,.24-.3,1.52,1.52,0,0,0,.13-.48A4.06,4.06,0,0,0,135.58,200.57Zm5.31,4.32a4.54,4.54,0,0,1-.1,1,2.15,2.15,0,0,1-.31.72,1.46,1.46,0,0,1-.52.47,1.58,1.58,0,0,1-.74.17,1.51,1.51,0,0,1-.73-.16,1.25,1.25,0,0,1-.5-.44,2.13,2.13,0,0,1-.29-.72,4.61,4.61,0,0,1-.09-1,3.73,3.73,0,0,1,.1-.91,2,2,0,0,1,.3-.72,1.47,1.47,0,0,1,.51-.48,1.58,1.58,0,0,1,.74-.17,1.55,1.55,0,0,1,.78.18,1.31,1.31,0,0,1,.5.49,1.93,1.93,0,0,1,.27.72A4.74,4.74,0,0,1,140.89,204.89Zm-.83,0a4.47,4.47,0,0,0,0-.67,1.78,1.78,0,0,0-.15-.49.66.66,0,0,0-.25-.29.7.7,0,0,0-.38-.1.69.69,0,0,0-.36.09.8.8,0,0,0-.25.29,1.67,1.67,0,0,0-.14.46,4.23,4.23,0,0,0-.05.66,4.15,4.15,0,0,0,.06.77,1.35,1.35,0,0,0,.16.48.55.55,0,0,0,.25.25.86.86,0,0,0,.36.07.63.63,0,0,0,.38-.1.84.84,0,0,0,.25-.3,1.53,1.53,0,0,0,.12-.48A4.06,4.06,0,0,0,140.06,204.93Z" transform="translate(0 -0.5)"/><path class="h" d="M208.72,65.46l-1.3,11.18,6.92-5.8,21.19-12.41-16.39,1.72s-8.35,2.33-8.8,2.79A23.46,23.46,0,0,0,208.72,65.46Z" transform="translate(0 -0.5)"/><polygon class="e" points="201.46 58.22 235.53 57.93 208.72 64.96 201.46 58.22"/><polygon class="e" points="219.67 76.2 210.74 67.98 235.53 57.93 219.67 76.2"/><path class="d" d="M100.21,154a6,6,0,0,1-2.73-.63l.25-.61a5.7,5.7,0,0,0,2.5.56Z" transform="translate(0 -0.5)"/><path class="d" d="M105.68,153.19l-.14-.66a46.24,46.24,0,0,0,5.2-1.79l.2.65A47.1,47.1,0,0,1,105.68,153.19Zm10.36-4.1-.24-.63c1.75-.86,3.45-1.78,4.92-2.66l.28.61C119.51,147.29,117.8,148.22,116,149.09Zm9.5-6.29-.43-.48a22.32,22.32,0,0,0,3.21-4.92l.52.33A23.42,23.42,0,0,1,125.54,142.8Zm11.3-2.52a15.83,15.83,0,0,1-5.49-.76l.16-.65a15.51,15.51,0,0,0,5.31.73Zm5.44-1.09-.19-.65a17.67,17.67,0,0,0,4.8-2.71l.34.56A18.25,18.25,0,0,1,142.28,139.19Zm-15.92-2.4a17,17,0,0,1-3.91-4.49l.49-.38a16.45,16.45,0,0,0,3.76,4.31ZM151.24,132l-.47-.42a40.85,40.85,0,0,0,3-5.19l.51.34A40.28,40.28,0,0,1,151.24,132Zm-20.37-.19-.58-.16a25.27,25.27,0,0,0,.58-6.11l.6,0A26.78,26.78,0,0,1,130.87,131.84Zm-10.52-5.42c-.06-.39-.09-.79-.12-1.19,0-.1,0-.2,0-.3a11.42,11.42,0,0,1,.78-4.83l.54.29a10.76,10.76,0,0,0-.73,4.51c0,.09,0,.19,0,.29,0,.37.06.75.11,1.12Zm36.53-5.15-.53-.33.74-1.57c.62-1.31,1.23-2.63,1.85-3.94l.53.33c-.62,1.31-1.24,2.62-1.85,3.93Zm-27.24-1.56a4.69,4.69,0,0,0-2.79-2.65,3.36,3.36,0,0,0-1.38-.09l-.06-.68a3.83,3.83,0,0,1,1.58.11,5.32,5.32,0,0,1,3.16,3Zm32.47-9.42-.52-.34c1-2,1.88-3.75,2.76-5.41l.51.36C164,106.55,163.08,108.32,162.11,110.29Zm5.68-10.65-.49-.38c1.06-1.8,2.13-3.52,3.19-5.1l.48.42C169.91,96.15,168.84,97.85,167.79,99.64Zm6.65-9.84-.44-.46c1.25-1.59,2.55-3.09,3.86-4.47l.4.51C177,86.74,175.68,88.22,174.44,89.8Zm8-8.37-.35-.55a52.88,52.88,0,0,1,4.59-3.45l.3.6A51.1,51.1,0,0,0,182.45,81.43Zm9.37-6.23-.24-.63a47.27,47.27,0,0,1,5.12-2.24l.18.65A47.07,47.07,0,0,0,191.82,75.2Z" transform="translate(0 -0.5)"/><path class="d" d="M202.13,71.39l-.12-.67c.88-.21,1.78-.39,2.66-.54l.09.67C203.88,71,203,71.18,202.13,71.39Z" transform="translate(0 -0.5)"/><path class="w" d="M248.88,116.89c-.91-4.57-4.47-8-8.73-8a8.07,8.07,0,0,0-2.26.33c-2.1-5.15-6.65-8.72-11.94-8.72a11.47,11.47,0,0,0-3.92.69c-2.85-5.41-8-9-13.92-9-7,0-13,5.11-15.27,12.27a10.07,10.07,0,0,0-5.42-1.61c-6.16,0-11.15,5.72-11.15,12.79,0,.41,0,.83,0,1.24Z" transform="translate(0 -0.5)"/><path class="w" d="M294.22,80.89a5.4,5.4,0,0,0-5-4.6,4.77,4.77,0,0,0-1.31.19,7.62,7.62,0,0,0-6.9-5,6.55,6.55,0,0,0-2.26.39,9.23,9.23,0,0,0-8-5.21c-4.06,0-7.51,3-8.82,7.09a5.83,5.83,0,0,0-3.14-.93c-3.55,0-6.44,3.31-6.44,7.39,0,.24,0,.48,0,.71Z" transform="translate(0 -0.5)"/><path class="w" d="M194,51.72a2.44,2.44,0,0,0-2.27-2.08,1.87,1.87,0,0,0-.59.09A3.45,3.45,0,0,0,188,47.45a3.17,3.17,0,0,0-1,.18,4.15,4.15,0,0,0-3.63-2.35,4.31,4.31,0,0,0-4,3.2,2.6,2.6,0,0,0-1.42-.42,3.14,3.14,0,0,0-2.9,3.33c0,.11,0,.22,0,.33Z" transform="translate(0 -0.5)"/><path class="w" d="M136.94,69.08a5.38,5.38,0,0,1,5-4.6,4.42,4.42,0,0,1,1.31.19,7.61,7.61,0,0,1,6.89-5,6.9,6.9,0,0,1,2.27.39,9.2,9.2,0,0,1,8-5.2c4.06,0,7.51,3,8.82,7.09a5.75,5.75,0,0,1,3.13-.94c3.56,0,6.44,3.31,6.44,7.39q0,.36,0,.72Z" transform="translate(0 -0.5)"/></svg>