<svg xmlns="http://www.w3.org/2000/svg" width="64" height="64" fill-rule="evenodd" clip-rule="evenodd" image-rendering="optimizeQuality" shape-rendering="geometricPrecision" text-rendering="geometricPrecision" viewBox="0 0 306 306"><rect width="306" height="306" fill="#6bcfed" rx="33" ry="33"/><path fill="#fff" d="M152 122c-31-2-61-13-86-43-11 18-5 42 13 55-6 0-13-2-19-5 1 21 12 34 33 41-6 1-12 2-18 1 5 16 17 27 38 28a79 79 0 01-61 18c74 46 180 4 181-105 8-6 15-13 21-22-7 3-15 6-23 7 9-6 14-14 17-23-8 5-16 8-26 10-35-32-79 2-70 38z"/><path fill="#57a9c2" d="M306 131l-58-57c-3 9-8 17-17 23 8-1 16-4 23-7-6 9-13 16-21 22A117 117 0 0152 217l90 89h131l33-33V131z"/></svg>