<svg xmlns="http://www.w3.org/2000/svg" width="64" height="64" fill-rule="evenodd" clip-rule="evenodd" image-rendering="optimizeQuality" shape-rendering="geometricPrecision" text-rendering="geometricPrecision" viewBox="0 0 643 643"><defs><style>.fil2{fill:#229000}</style></defs><g id="Layer_x0020_1"><g id="_444245648"><rect width="643" height="643" fill="#2ab200" rx="69" ry="69"/><path fill="#fff" d="M325 100a217 217 0 11-106 406l-118 37 37-116a217 217 0 01187-327zm-50 200s16 26 42 47c26 20 40 24 40 24s23-29 26-29c3-1 23 8 32 13 8 4 20 11 20 14 0 2-1 20-7 27-6 6-23 22-39 20-78-6-150-77-163-129-2-9-1-44 6-53 8-9 13-15 23-16s16 0 19 7l20 45c1 4-20 24-19 30zm-31 178a180 180 0 1081-342 181 181 0 00-148 284l-20 69 69-21 18 10z"/><path d="M542 316c0 167-180 270-323 190l-118 37 100 100h372l70-70V334L506 197c22 34 36 75 36 119z" class="fil2"/><path d="M177 420zm67 58a181 181 0 1081-342 181 181 0 00-148 284l-20 69 69-21 18 10zm145-62c-78-6-150-77-163-129-5-21 1-66 29-69 10-1 16 0 19 7l20 45c1 4-20 24-19 30 11 19 53 64 82 71 28-35 21-35 58-16 8 4 20 11 20 14 0 30-27 49-46 47z" class="fil2"/></g></g></svg>